<?xml version="1.0" encoding="utf-8" ?>
<svg xmlns="http://www.w3.org/2000/svg" xmlns:xlink="http://www.w3.org/1999/xlink" width="729" height="728">
	<path fill="#03A6BD" d="M0 349.333L-0 -0L350.01 0L378.633 0L729 0L729 346.489L729 381.509L729 728L383.952 728L345.391 728L-0 728L0 379.02L0 349.333ZM355.375 14.4283C275.157 15.868 196.448 46.7999 135.874 99.2173C129.022 105.146 121.964 111.27 115.653 117.772C100.863 133.007 87.0624 149.408 75.049 166.939C34.4869 226.132 13.0979 297.598 14.4181 369.322C14.7282 386.174 15.929 403.08 18.6016 419.712C27.3248 473.999 49.1538 525.292 81.3362 569.774C89.8065 581.482 99.0145 592.736 109.069 603.123C110.484 604.585 111.691 606.263 113.146 607.673L141.671 634.028L160.858 648.542C208.236 682.635 263.816 704.069 321.706 711.149C338.282 713.176 355.191 714.296 371.901 713.646L373.306 713.582C448.483 712.191 521.013 685.369 580.27 639.377C589.534 632.187 597.956 624.601 606.474 616.574C608.513 614.653 610.862 612.933 612.78 610.913C628.055 594.819 642.173 578.117 654.829 559.853C663.063 547.972 670.223 535.166 676.775 522.3C696.134 484.282 708.025 443.754 712.849 401.379C714.962 382.814 715.098 363.489 714.273 344.847L712.106 321.585C709.419 300.638 705.388 280.173 699.122 259.96C685.218 215.107 661.474 172.177 630.693 136.696C623.528 128.437 616.065 119.84 607.975 112.491C596.031 101.644 584.291 91.1092 571.229 81.5709C508.848 36.0156 432.579 12.1754 355.375 14.4283ZM0 379.02L-0 728L345.391 728C343.73 727.547 341.828 727.484 340.105 727.301L326.16 726.161L293.338 721.174C283.244 719.357 273.257 716.603 263.408 713.791C221.354 701.785 182.805 682.273 147.457 656.595C138.271 649.923 129.366 642.572 120.945 634.961L112.442 626.901C100.406 616.031 89.35 603.461 79.2683 590.756C43.52 545.706 19.5505 494.19 7.45909 437.99C5.39467 428.395 4.05459 418.745 2.78714 409.033C2.51969 406.983 2.04672 404.959 1.8569 402.899C1.14352 395.159 1.33509 387.007 0.0634155 379.379L0 379.02ZM378.633 0C385.142 0.923892 391.687 0.788296 398.213 1.37462C411.492 2.56764 424.954 4.57775 438.011 7.30396C495.703 19.3499 550.141 44.9215 595.723 82.3689L617.364 101.855C625.126 109.148 632.423 116.78 639.406 124.836C641.874 127.683 644.638 130.469 646.899 133.47L667.412 161.047C695.743 203.278 715.211 251.471 723.882 301.603L727.925 333.385C728.313 337.774 728.187 342.138 729 346.489L729 0L378.633 0ZM0 349.333C0.53946 346.921 0.53107 344.174 0.704379 341.704L1.66629 326.77C1.85752 324.243 2.41198 321.763 2.70301 319.249L5.11724 301.928C13.2403 254.984 30.652 209.791 56.1927 169.588C61.1965 161.712 66.3263 153.861 71.9877 146.437C82.93 132.087 94.7439 118.065 107.555 105.354L115.508 98.1632L133.017 82.5012C178.926 45.0907 232.531 19.5833 290.461 7.40649C304.19 4.52057 318.251 2.60095 332.212 1.27855C338.133 0.717651 344.097 0.797405 350.01 0L-0 -0L0 349.333ZM383.952 728L729 728L729 381.509L728.902 382.02C728.18 385.871 728.2 389.847 727.983 393.751L726.821 405.829C724.901 421.317 722.158 436.476 718.553 451.661C716.175 461.675 713.046 471.593 709.731 481.332C695.34 523.607 673.108 563.1 644.499 597.404L628.768 614.733C626.768 616.855 624.999 619.132 622.927 621.21L614.052 629.412C602.474 640.321 590.262 650.713 577.184 659.807C564.386 668.705 551.399 677.27 537.657 684.668C514.307 697.241 489.344 707.285 463.798 714.373C454.059 717.075 444.207 719.682 434.244 721.446L403.788 726.085L391.969 727.094C389.444 727.254 386.341 727.178 383.952 728Z"/>
	<path fill="#03A6BD" d="M545.228 400.084C543.541 399.301 542.985 399.376 541.897 397.819C541.322 393.459 542.831 387.179 545.236 383.542L548.886 382.975L549.304 382.389L549.587 382.766C550.017 383.298 550.549 383.572 551.124 383.92C553.984 385.653 556.324 388.545 557.036 391.867C557.353 393.347 557.136 394.206 556.337 395.459C554.42 396.753 551.842 397.163 549.695 398.006C548.228 398.583 546.712 399.681 545.228 400.084Z"/>
	<path fill="#2FBAD1" d="M172.472 310.844C173.465 310.964 174.451 311.093 175.393 311.446C177.485 312.228 178.949 313.363 179.832 315.462C180.742 317.624 180.594 320.312 179.637 322.408C177.223 323.458 174.913 324.407 172.349 325.021C170.143 325.124 166.878 325.453 164.917 324.333C164.064 323.845 163.834 323.127 163.61 322.195C163.016 319.727 163.818 316.561 165.306 314.536C166.893 312.376 169.911 311.211 172.472 310.844Z"/>
	<path fill="#03A6BD" d="M197.372 187.947L199.722 181.989C200.579 179.632 201.341 175.816 203.927 174.753C205.006 174.309 205.554 174.274 206.633 174.799C207.829 175.381 208.426 176.527 209.101 177.62C211.587 181.643 212.505 186.162 214.359 190.455C215.567 193.252 217.1 195.832 219.419 197.85C220.98 199.208 223.002 200.503 225.01 201.063C228.255 201.968 231.845 201.941 235.175 202.358C236.262 202.494 238.064 202.677 238.914 203.448C239.42 203.907 240.035 205.092 240.255 205.736C240.886 207.589 240.388 209.855 239.931 211.699C237.614 212.204 235.331 212.616 232.96 212.767C229.075 213.013 222.95 212.419 219.612 214.404C217.259 215.803 215.454 218.621 214.01 220.883C210.456 226.445 211.33 233.413 210.427 239.728C208.168 239.254 203.066 238.794 201.532 237.089C200.905 235.05 200.934 232.96 200.869 230.845C200.787 228.16 201.234 224.261 199.818 221.956C199.16 220.885 197.82 219.96 196.848 219.178C195.031 217.716 193.185 216.282 191.116 215.191C189.472 214.324 187.76 213.765 185.898 213.637C182.905 213.431 175.348 214.35 173.09 212.348C172.812 212.102 172.376 210.93 172.261 210.568C171.91 209.464 171.887 208.11 171.815 206.957L172.123 206.346C172.409 205.727 172.592 205.09 172.982 204.516C173.727 203.42 175.071 202.508 176.136 201.723C180.589 198.442 185.086 197.265 190.347 195.917L192.374 194.892L193.575 193.859C195.165 192.161 196.236 189.968 197.372 187.947Z"/>
	<path fill="#F3F5F6" d="M204.166 193.149C208.902 194.71 212.431 200.962 215.71 204.682C215.694 207.926 215.541 210.045 213.094 212.449C210.271 215.224 205.555 217.326 201.526 217.318C199.908 217.315 198.875 216.734 197.786 215.552C196.703 214.377 196.182 212.483 195.613 211.008C194.457 208.018 192.825 204.646 192.448 201.468C193.407 199.534 194.653 198.163 196.106 196.594C198.934 194.21 200.403 193.254 204.166 193.149Z"/>
	<path fill="#2FBAD1" d="M511.396 519.057C509.249 518.982 506.912 518.99 504.818 518.494C497.53 516.765 490.926 511.399 487.072 505.057C484.783 501.29 483.438 496.401 484.725 492.006C486.358 486.43 491.884 480.64 496.665 477.561C498.822 476.172 501.149 475.21 503.332 473.922C504.049 473.499 504.421 473.209 505.287 473.052C512.378 471.771 518.938 474.118 524.695 478.285C528.714 481.193 531.736 486.615 532.54 491.478L532.619 491.978L532.916 494.292C533.409 501.554 529.468 507.194 524.874 512.473C520.987 515.432 516.418 518.64 511.396 519.057Z"/>
	<path fill="#F3F5F6" d="M509.105 484.917C511.356 484.805 513.239 484.648 515.169 486.061C517.484 487.756 518.962 490.911 519.295 493.703C519.681 496.943 518.832 500.125 516.751 502.665C515.029 504.766 513.672 504.877 511.105 505.113L508.841 504.509C505.749 503.352 502.189 500.593 501.003 497.496C500.233 495.488 500.321 493.519 501.293 491.589C502.996 488.206 505.585 486.179 509.105 484.917Z"/>
	<path fill="#F3F5F6" d="M269.049 236.296C271.365 235.065 274.035 233.871 276.045 232.162C279.755 229.007 282.782 224.494 285.897 220.774C290.177 215.663 294.804 211.482 300.157 207.511C302.722 205.609 305.581 204.329 308.391 202.841L318.582 197.261C322.007 195.463 325.371 193.422 328.876 191.8C332.701 190.032 336.587 188.814 340.492 187.312C345.309 185.458 350.132 183.385 355.061 181.841C359.328 180.505 363.563 179.712 367.882 178.635C385.769 174.174 405.586 172.631 423.98 174.788C428.136 175.275 432.162 176.237 436.26 177.055C440.183 177.837 444.254 178.425 448.095 179.549C451.825 180.642 455.462 182.127 459.131 183.41C461.422 184.21 463.766 184.718 466.011 185.666C474.496 189.25 482.634 194.066 490.422 198.939C494.472 201.473 498.802 203.967 502.681 206.74C508.857 211.154 514.251 216.59 519.609 221.921C521.471 223.775 523.548 225.388 525.345 227.314C533.973 236.558 541.4 247.415 547.331 258.573C561.865 285.914 564.226 319.474 559.497 349.65C558.638 355.13 557.989 360.568 556.346 365.897C554.619 371.498 552.062 377.222 549.304 382.389L548.886 382.975L545.236 383.542C542.831 387.179 541.322 393.459 541.897 397.819C542.985 399.376 543.541 399.301 545.228 400.084C544.018 400.885 542.54 401.723 541.613 402.849C539.695 405.181 538.656 408.236 537.244 410.886L528.75 426.309C522.003 437.733 512.749 446.695 503.446 456.011C498.245 461.219 491.937 465.203 485.607 468.855C482.38 470.716 479.147 472.668 475.68 474.054C471.598 475.688 467.325 476.893 463.1 478.081C460.112 478.92 456.446 480.276 453.326 480.193L452.795 480.168C452.66 477.591 453.162 474.736 453.405 472.157L454.805 457.386C455.466 450.769 455.961 444.16 457.083 437.598C458.689 428.205 461.357 419.454 464.395 410.448C466.774 403.397 469.218 396.453 472.65 389.828C476.433 382.527 481.328 375.703 485.287 368.437C493.361 353.618 497.852 337.956 497.744 321.028C497.696 313.55 496.707 305.678 493.923 298.692C491.817 293.408 488.362 288.873 485.745 283.849C484.404 281.275 483.59 278.537 482.772 275.764C484.64 274.475 486.56 273.181 488.614 272.203C491.901 270.639 496.848 269.391 499.011 266.281C499.145 264.733 499.009 263.396 498.482 261.923C496.483 256.333 489.967 254.742 485.243 252.205C482.737 250.86 480.325 249.083 478.283 247.104C473.086 242.067 472.11 234.87 467.561 229.562C465.694 227.383 463.711 226.137 461.162 224.946C458.278 227.768 457.751 232.54 455.471 235.844C448.026 246.63 436.066 239.125 426.564 236.708C420.494 235.164 413.259 234.248 406.963 234.274C395.822 234.322 383.658 236.097 373.168 239.868C370.286 240.904 367.716 242.216 365.164 243.918C360.869 246.785 357.076 250.926 351.508 250.613C347.008 250.36 341.93 245.796 338.022 243.721C325.595 237.125 309.336 233.139 295.229 233.377C288.43 233.492 281.569 234.639 274.889 235.822C272.833 236.342 271.157 236.855 269.049 236.296Z"/>
	<path fill="#2FBAD1" d="M274.889 235.822C281.569 234.639 288.43 233.492 295.229 233.377C309.336 233.139 325.595 237.125 338.022 243.721C341.93 245.796 347.008 250.36 351.508 250.613C357.076 250.926 360.869 246.785 365.164 243.918C367.716 242.216 370.286 240.904 373.168 239.868C383.658 236.097 395.822 234.322 406.963 234.274C413.259 234.248 420.494 235.164 426.564 236.708C436.066 239.125 448.026 246.63 455.471 235.844C457.751 232.54 458.278 227.768 461.162 224.946C463.711 226.137 465.694 227.383 467.561 229.562C472.11 234.87 473.086 242.067 478.283 247.104C480.325 249.083 482.737 250.86 485.243 252.205C489.967 254.742 496.483 256.333 498.482 261.923C499.009 263.396 499.145 264.733 499.011 266.281C496.848 269.391 491.901 270.639 488.614 272.203C486.56 273.181 484.64 274.475 482.772 275.764C483.59 278.537 484.404 281.275 485.745 283.849C488.362 288.873 491.817 293.408 493.923 298.692C496.707 305.678 497.696 313.55 497.744 321.028C497.852 337.956 493.361 353.618 485.287 368.437C481.328 375.703 476.433 382.527 472.65 389.828C469.218 396.453 466.774 403.397 464.395 410.448C461.357 419.454 458.689 428.205 457.083 437.598C455.961 444.16 455.466 450.769 454.805 457.386L453.405 472.157C453.162 474.736 452.66 477.591 452.795 480.168C452.404 482.884 451.355 485.324 450.932 487.992L449.329 499.346L445.998 515.118C444.152 523.521 442.41 531.265 437.729 538.625C436.396 540.722 435.041 542.838 433.019 544.338C425.691 549.775 414.641 552.604 405.576 551.14C398.869 550.057 393.388 547.176 389.354 541.587C380.581 529.434 381.75 512.94 381.769 498.768C381.777 492.691 381.524 486.54 381.926 480.478C379.295 480.681 376.584 480.446 373.944 480.339C361.207 479.825 349.033 476.751 337.091 472.46C332.071 470.655 327.296 468.312 322.144 466.876C321.578 467.806 321.746 470.227 321.674 471.39C320.92 483.509 321.58 495.822 321.5 507.967C321.473 512.185 321.722 516.69 321.169 520.868C320.778 523.823 320.523 526.747 319.569 529.591C316.799 537.851 313.54 544.631 305.413 548.581C299.001 551.698 288.552 552.816 281.74 550.297C279.162 549.344 277.026 547.782 274.903 546.084C269.817 542.013 266.511 536.768 263.798 530.9C258.423 519.274 256.605 507.165 255.016 494.57L252.44 467.994C251.834 458.617 252.407 447.007 248.805 438.237C247.402 434.822 245.3 432.069 243.218 429.065C238.775 422.653 233.812 415.932 228.011 410.666C225.996 408.837 223.659 407.202 221.318 405.816C218.165 403.948 213.664 401.959 212.144 398.389C211.394 396.628 210.441 392.921 211.325 391.154C211.628 390.547 211.858 390.534 212.45 390.229C217.169 387.798 222.907 386.315 227.939 384.631C228.045 382.958 228.232 381.133 227.891 379.486C226.544 372.978 220.763 366.96 217.703 361.12C215.131 356.213 213.381 350.99 211.769 345.712C209.735 339.049 208.197 332.891 207.543 325.909C207.17 321.926 206.627 317.594 206.92 313.597C207.29 308.554 209.077 302.343 210.595 297.535C213.525 288.258 218.674 279.696 224.162 271.747C226.168 268.842 228.062 265.843 230.378 263.168C232.458 260.765 234.889 258.567 237.16 256.34C241.332 252.25 246.053 248.02 251.283 245.335L269.049 236.296C271.157 236.855 272.833 236.342 274.889 235.822Z"/>
	<path fill="#03A6BD" d="M269.049 236.296C271.157 236.855 272.833 236.342 274.889 235.822C273.766 236.808 272.631 237.961 271.316 238.677C270.609 239.063 270.663 239.303 270.195 239.867C268.896 241.432 255.865 245.624 253.516 245.565L251.283 245.335L269.049 236.296Z"/>
	<path fill="#F3F5F6" d="M322.144 466.876C320.878 464.99 322.762 446.557 323.364 443.598C324.883 436.134 328.23 428.355 334.802 424.008C341.575 419.53 351.344 416.545 359.377 418.429C367.114 420.244 373.961 427.153 377.856 433.808C382.799 442.251 382.867 452.794 382.724 462.285L381.926 480.478C379.295 480.681 376.584 480.446 373.944 480.339C361.207 479.825 349.033 476.751 337.091 472.46C332.071 470.655 327.296 468.312 322.144 466.876Z"/>
	<path fill="#F3F5F6" d="M293.174 247.206C297.972 247.038 302.793 247.036 307.547 247.819C317.719 249.493 327.578 253.63 336.972 257.785C342.071 260.041 346.268 263.359 352.106 263.26C358.916 263.145 363.063 259.754 368.886 256.804C373.04 254.699 377.478 252.651 381.894 251.151C391.986 247.723 403.225 247.321 413.793 247.337L422.917 247.441C424.342 247.474 426.303 247.415 427.634 247.94C429.121 248.526 430.689 250.78 431.415 252.161C433.792 256.683 428.47 261.967 427.607 266.281C427.415 267.239 427.357 268.573 428.123 269.307C428.558 269.722 430.822 270.243 431.476 270.472C436.362 272.18 441.529 273.558 445.56 276.956C448.808 279.695 453.05 285.03 453.961 289.226C454.509 291.749 454.243 294.814 454.389 297.409C454.445 298.401 454.323 299.597 454.913 300.438C459.412 300.792 462.56 298.364 465.923 295.776C466.779 295.117 467.835 294.142 468.88 293.823C470.858 293.219 474.295 294.023 476.082 294.971C479.259 296.655 481.338 299.909 482.329 303.281C484.157 309.497 484.12 316.315 484.082 322.741C484.041 329.739 483.841 337.334 481.857 344.081C480.295 349.394 477.564 354.027 474.89 358.827C473.15 361.951 471.495 365.26 469.494 368.222L461.795 379.082C454.801 389.928 448.73 402.471 445.632 415.027C442.295 428.556 440.401 442.868 438.783 456.713L436.318 482.901L433.935 499.079C432.727 508.278 432.376 519.717 427.859 527.952C424.878 533.388 420.007 536.121 414.193 537.723C411.882 538.36 408.743 538.85 406.588 537.541C401.076 534.193 398.975 528.361 397.576 522.416C396.11 516.186 396.748 509.235 396.805 502.857L397.216 474.034C397.442 462.771 398.465 450.426 395.818 439.395C394.244 432.834 391.218 426.704 387.23 421.295C382.381 415.029 375.531 410.031 368.238 406.984C358.325 402.841 346.428 402.955 336.486 407.041C329.136 410.061 323.083 414.925 318.441 421.355C307.611 436.355 307.608 452.458 307.1 470.169L306.612 506.905C306.557 513.959 307.425 523.042 304.54 529.595C303.124 532.812 299.876 535.796 296.539 536.994C293.51 538.082 289.177 538.008 286.295 536.556C279.27 533.018 276.239 525.668 273.981 518.531C271.124 509.503 270.846 499.604 269.712 490.249C267.612 472.91 265.738 455.737 262.326 438.594C261.61 434.996 258.228 420.775 259.704 418.049C262.912 412.124 271.035 408.908 276.598 405.696C279.358 404.102 282.694 401.754 284.043 398.783C285.081 396.498 284.357 393.703 282.794 391.843C280.782 389.448 276.726 387.592 274.087 385.867C270.294 383.388 266.701 380.601 263.675 377.211C259.963 373.053 258.183 368.099 256.17 363.017C255.544 361.438 254.459 358.69 252.737 358.079C249.398 356.896 246.297 364.06 244.23 366.078C242.601 367.67 240.777 368.551 238.757 369.529C236.831 365.519 233.489 362.28 231.154 358.499C227.682 352.876 225.557 345.97 223.88 339.603C222.636 334.88 221.505 330.266 221.104 325.386C220.19 314.244 222.664 300.414 227.72 290.402C230.891 284.121 236.08 277.327 240.657 271.982C245.598 266.213 250.736 262.247 257.148 258.288C260.256 256.369 263.399 254.234 266.722 252.713C274.801 249.016 284.393 247.869 293.174 247.206Z"/>
	<path fill="#2FBAD1" d="M389.808 309.889C390.889 309.743 391.869 309.781 392.94 309.954C395.815 310.416 398.902 310.789 400.63 313.404C403.59 317.886 402.909 322.107 402.053 327.036C401.054 327.874 400.219 327.776 398.943 327.939L395.941 328.295C393.186 328.539 388.919 328.948 386.747 326.824C385.881 325.976 385.657 324.942 385.719 323.773C385.888 320.626 387.14 317.034 388.005 313.983C388.407 312.563 388.665 310.898 389.808 309.889Z"/>
	<path fill="#2FBAD1" d="M296.256 309.435C298.406 309.093 299.806 309.146 301.646 310.445C304.084 312.166 304.715 313.973 305.193 316.796C305.699 319.78 306.394 322.951 304.446 325.548C302.875 327.642 301.866 328.178 299.282 328.545L289.061 328.348C288.724 324.376 288.748 319.565 290.05 315.763C291.14 312.581 293.348 310.892 296.256 309.435Z"/>
	<path fill="#2FBAD1" d="M381.162 356.766C382.44 356.557 383.676 356.601 384.968 356.629C385.634 357.513 385.463 358.231 385.486 359.328C385.59 364.255 382.657 371.682 379.058 375.19C372.668 381.418 363.894 382.212 355.47 382.055C354.668 381.966 353.756 381.927 353.018 381.58C352.073 381.136 351.836 380.481 351.555 379.523C351.042 377.775 350.889 375.856 351.852 374.235C353.899 370.788 358.222 368.269 361.57 366.215C367.908 362.326 374.002 358.904 381.162 356.766Z"/>
</svg>
