<?xml version="1.0" encoding="utf-8" ?>
<svg xmlns="http://www.w3.org/2000/svg" xmlns:xlink="http://www.w3.org/1999/xlink" width="729" height="729">
	<path fill="#0FAAC1" d="M0 349.658L-0 -0L350.01 0L378.633 0L729 0L729 346.816L729 381.833L729 729L383.953 729L345.393 729L-0 729L0 379.343L0 349.658ZM355.441 14.428C280.826 15.7654 205.758 42.9319 147.544 89.6676C136.56 98.486 125.833 107.642 116.049 117.807C100.304 134.166 85.8687 151.035 73.184 169.922C39.5173 220.048 19.4886 279.034 15.2563 339.227C14.5762 348.901 13.995 358.897 14.2902 368.594C14.7513 383.74 15.4527 398.964 17.6695 413.966C25.8254 469.158 46.5328 521.814 78.9979 567.218C84.1885 574.477 89.4188 581.899 95.2185 588.69C105.444 600.662 116.367 612.09 127.955 622.758C181.411 671.968 249.548 703.348 321.706 712.146C338.214 714.159 355.064 715.304 371.706 714.651L372.776 714.597C446.126 713.282 519.468 687.531 577.492 642.568L600.544 623.325L622.278 601.626C628.223 595.508 633.614 588.647 638.949 582C678.928 532.192 704.487 470.783 712.085 407.404C713.83 392.844 715.034 377.862 714.731 363.183C714.47 350.579 714.144 337.876 712.676 325.345C704.722 257.42 677.722 193.288 633.994 140.603C623.633 128.119 612.093 116.613 600.344 105.446C593.772 99.199 586.522 93.6047 579.436 87.9776C516.865 38.2902 436.034 12.2857 356.34 14.4024L355.441 14.428ZM0 379.343L-0 729L345.393 729C343.676 728.511 341.688 728.459 339.899 728.276L326.068 727.191L293.186 722.144C283.517 720.355 273.924 717.741 264.476 715.068C220.658 702.67 180.002 682.054 143.627 654.69C128.582 643.372 114.486 630.436 101.517 616.829C90.9378 605.73 81.0752 594.311 71.8138 582.077C40.1544 540.254 18.3985 490.269 7.51857 439.073L2.80895 409.885C2.52354 407.814 2.04387 405.77 1.84681 403.686C1.09713 395.76 1.22468 387.613 0.0640435 379.754L0 379.343ZM378.633 0C384.775 0.860112 390.911 0.793036 397.07 1.2791L420.046 4.07355C428.347 5.22156 436.66 7.02195 444.834 8.86216C477.136 16.1343 507.871 27.706 537.079 43.2635L560.28 56.8662C563.703 59.0556 567.171 61.8207 570.688 63.7579C575.724 66.5326 580.138 70.9242 584.99 74.0194C586.581 75.0342 587.833 76.3635 589.287 77.5463L599.432 85.7483C611.975 96.4364 623.652 107.767 634.942 119.78L644.517 130.822C647.78 134.282 650.893 138.62 653.821 142.407C654.957 143.877 655.794 145.454 657.089 146.813C658.654 148.455 659.679 150.509 660.985 152.35L671.03 166.99C692.214 198.817 708.03 235.662 717.542 272.663L722.144 292.59L724.86 308.102C725.714 312.036 725.832 316.247 726.33 320.233C726.873 324.569 727.615 328.933 727.902 333.301C728.188 337.655 727.837 342.634 729 346.816L729 0L378.633 0ZM0 349.658C0.544496 347.689 0.481678 345.209 0.640799 343.143L1.70366 326.709C2.32575 318.868 3.77763 310.865 5.02318 303.097C12.7823 254.712 31.7334 207.392 58.4087 166.383C63.2476 158.944 68.1766 151.513 73.6096 144.486L93.579 120.322L100.273 113.44C102.48 111.066 104.475 108.437 106.788 106.17C108.766 104.231 111.006 102.587 113.016 100.683L131.298 84.0472C176.56 46.0981 231.692 19.7082 289.46 7.61376C303.377 4.70002 317.563 2.69955 331.71 1.3245C337.796 0.732883 343.927 0.803688 350.01 0L-0 -0L0 349.658ZM729 381.833L728.91 382.323C728.1 386.866 728.1 391.623 727.858 396.225L726.827 406.503C725.057 421.092 722.472 435.496 719.144 449.814C704 514.962 669.052 575.337 622.169 622.747L614.825 629.485C605.725 638.078 596.339 646.826 586.15 654.141C575.062 662.1 564.109 670.058 552.418 677.149C517.335 698.428 477.382 714.027 437.115 721.912L403.121 727.169L391.074 728.138C388.806 728.29 386.1 728.276 383.953 729L729 729L729 381.833Z"/>
	<path fill="#16A8CF" d="M295.987 457.612C294.821 457.277 293.678 456.519 292.61 455.934C291.536 452.393 291.797 448.684 291.879 445.03L299.441 444.466C297.623 449.077 295.688 452.418 295.987 457.612Z"/>
	<path fill="#0FAAC1" d="M259.969 189.569C265.892 186.278 272.152 183.361 278.786 181.84C292.34 178.733 307.912 180.723 321.079 184.494C329.83 187.002 338.66 189.28 347.714 190.399C352.397 190.978 357.239 190.915 361.954 190.9C365.911 190.888 369.961 190.981 373.905 190.641C383.612 189.805 392.617 187.026 402.03 184.745C407.631 183.387 413.416 182.376 419.135 181.663C426.586 180.734 434.631 180.958 441.986 182.527C446.374 183.463 450.676 185.037 454.942 186.412C460.027 188.053 465.718 190.038 470.229 192.895C478.118 197.893 486.184 206.601 490.781 214.796C502.095 234.966 498.329 257.87 492.21 279.01L464.811 351.959C455.149 352.505 445.611 352.193 436.027 353.647L435.943 377.093C435.972 381.67 436.336 386.578 435.74 391.113C426.105 392.768 416.168 391.262 406.541 392.929L406.874 415.11C413.317 416.021 420.382 416.081 426.615 418.002C427.497 418.275 428.363 418.905 428.881 419.673C430.557 422.157 430.084 426.272 429.865 429.122C422.127 429.803 414.878 428.954 407.189 428.869C405.827 437.34 406.14 445.996 406.83 454.524C412.468 455.219 418.248 455.595 423.782 456.871C425.412 457.247 427.221 457.478 428.621 458.435C430.295 461.572 429.734 466.051 429.457 469.502C426.054 469.707 422.642 469.911 419.233 469.77C415.255 469.607 410.899 469.007 406.951 469.424C405.681 477.865 406.46 485.962 406.789 494.413C410.966 494.936 425.737 495.667 428.278 498.967C430.281 501.569 429.586 506.99 429.439 510.076L406.97 509.552C406.045 515.805 406.054 522.084 406.073 528.393C406.078 529.712 405.839 532.828 406.571 533.82C413.144 535.194 420.159 535.284 426.496 537.555C427.727 537.996 428.8 538.4 429.494 539.567C430.996 542.098 430.206 546.919 429.989 549.714C425.73 549.657 421.475 549.559 417.241 549.051C411.218 548.327 405.605 546.969 399.447 547.08L395.683 564.918C394.752 568.513 393.575 572.597 391.426 575.671C383.31 577.525 374.092 577.049 365.816 577.072C355.765 577.1 345.845 577.388 335.867 575.99C334.137 575.747 333.049 575.219 332.028 573.757C330.349 571.351 329.58 568.236 328.518 565.525C327.537 563.024 326.194 560.686 325.191 558.197C322.879 552.464 321.927 546.565 321.206 540.465C314.932 539.361 296.353 540.811 293.005 535.537C291.846 533.712 291.539 529.547 292.101 527.417L292.419 526.634C293.835 526.017 294.986 525.877 296.512 525.721L297.226 525.642C303.597 524.961 310.357 525.752 316.755 525.859C317.165 519.366 317.394 513.065 316.784 506.568C316.653 505.18 316.705 503.364 316.215 502.078L315.851 502.08C312.645 502.058 309.407 501.431 306.218 501.065C303.319 500.732 300.075 500.636 297.266 499.859C296.215 499.568 295.233 499.054 294.454 498.286C292.366 496.229 291.874 492.445 292.095 489.619C292.187 488.448 292.313 487.951 293.131 487.113C300.438 484.671 309.292 487.273 316.948 486.623L315.913 460.723L304.892 459.072C301.987 458.671 298.796 458.424 295.987 457.612C295.688 452.418 297.623 449.077 299.441 444.466L316.4 444.802C317.457 436.871 317.151 428.506 316.01 420.606L307.477 419.729C303.91 419.511 298.046 419.92 294.91 418.247C293.425 417.454 292.693 416.456 292.232 414.843C291.604 412.64 291.069 409.666 292.274 407.581C296.616 404.729 304.747 406.46 309.777 406.776C312.244 406.931 314.746 406.88 317.217 406.87L316.938 392.846C315.737 392.066 312.759 392.01 311.326 391.904L296.867 391.332C293.159 391.185 289.802 391.221 286.312 389.82C285.485 387.709 285.564 384.588 285.519 382.327C285.324 372.471 286.855 363.506 288.274 353.811C286.073 353.588 283.874 353.245 281.664 353.14C278.267 352.977 259.424 353.174 257.952 351.276C256.217 349.04 255.645 343.004 255.007 340.184C254.324 337.163 253.466 334.138 252.436 331.218C248.887 321.157 244.231 311.354 240.093 301.527C237.267 294.816 234.91 287.967 232.764 281.012C230.473 273.585 228.383 266.171 227.516 258.414C226.701 251.124 226.846 243.782 227.212 236.471C227.518 232.433 228.209 228.283 229.452 224.427C234.203 209.7 246.298 196.631 259.969 189.569ZM293.515 195.224L284.054 196.01C279.623 196.684 274.898 197.583 270.705 199.224C262.523 202.428 253.675 209.598 248.434 216.541C238.331 229.924 239.913 247.629 242.189 263.213C242.933 268.31 244.517 273.114 246.101 277.989L251.69 294.021L257.382 307.547C261.237 317.761 264.579 328.696 269.425 338.469L440.613 338.127C443.995 338.173 453.19 339.23 455.532 336.935C457.96 334.555 458.67 330.244 459.588 327.048L463.278 315.32C465.163 310.106 467.641 305.103 469.723 299.966C473.117 291.592 476.082 283.15 478.62 274.48C481.881 263.338 484.499 252.32 484.035 240.627C483.544 228.265 476.347 217.037 467.466 208.917C456.464 198.857 441.121 194.439 426.437 195.177C410.841 195.96 396.179 201.884 380.94 204.403C378.06 204.878 374.995 204.852 372.08 204.999L355.245 205.3C338.102 204.792 321.963 198.085 305.001 196.034C301.197 195.573 297.358 195.041 293.515 195.224ZM304.403 352.874L298.717 353.92L298.836 354.457C300.275 361.241 299.059 368.077 300.962 374.88C301.201 375.737 301.349 376.903 301.882 377.617L418.337 377.997L421.995 377.776L423.262 354.53C411.223 352.762 398.841 353.145 386.692 353.134L340.584 353.106L314.973 353.015C311.655 352.988 307.647 352.463 304.403 352.874ZM330.96 462.013C330.396 467.478 330.169 472.912 330.262 478.406C330.314 481.45 330.341 484.776 331.408 487.659C336.042 488.907 340.713 489.141 345.469 489.569L368.771 491.313L391.909 493.613C392.196 493.411 392.55 493.207 392.799 492.96C394.299 484.825 393.462 476.145 392.867 467.928L392.539 467.933C388.691 467.935 384.65 467.195 380.794 466.84L345.863 463.081C340.775 462.613 336.09 462.022 330.96 462.013ZM330.66 422.553C330.055 430.866 329.527 439.483 330.792 447.758C336.807 449.258 343.025 449.366 349.194 449.702L376.781 451.19L387.637 452.211C388.746 452.332 390.672 452.811 391.731 452.658C392.005 452.619 392.212 452.382 392.452 452.243C393.904 448.972 393.704 445.185 393.672 441.673L393.372 427.844L363.254 425.181L345.606 423.356C340.636 422.864 335.663 422.258 330.66 422.553ZM331.426 502.789C330.443 507.185 330.852 512.363 330.951 516.85C331.031 520.493 330.863 524.199 331.543 527.793C336.18 528.91 340.986 529.271 345.73 529.669L371.697 531.189C378.36 531.606 385.407 532.927 392.052 532.309L392.579 531.622C393.534 528.831 393.5 525.896 393.525 522.979L392.939 508.26L392.495 508.264C384.781 508.256 376.754 507.129 369.079 506.296L355.615 505.105C353.936 504.913 352.427 504.366 350.796 504.086C347.032 503.439 342.928 503.255 339.113 502.84C336.798 502.589 333.664 502.102 331.426 502.789ZM333.098 391.319L330.711 391.642C330.16 392.974 330.223 394.698 330.143 396.142C329.898 400.515 330.225 404.453 330.891 408.762L391.513 413.158L393.257 412.815C394.404 406.787 394.203 400.279 393.886 394.175L393.559 394.13C391.265 393.797 389.061 393.099 386.756 392.833C374.414 391.408 361.568 391.641 349.146 391.414C343.845 391.317 338.379 390.753 333.098 391.319ZM334.873 541.341C335.22 543.909 335.471 546.542 336.225 549.025L336.414 549.665C337.441 553.084 339.192 556.298 341.185 559.242C341.814 560.171 342.491 561.341 343.497 561.913C345.849 563.251 349.34 563.093 351.984 563.174L369.118 563.368C372.865 563.394 378.05 564.005 381.553 562.832C382.349 562.565 383.023 562.115 383.544 561.458C385.783 557.156 385.893 551.932 385.235 547.217C379.092 545.677 372.837 545.146 366.568 544.332C356.133 542.977 345.4 541.441 334.873 541.341ZM259.969 189.569C246.298 196.631 234.203 209.7 229.452 224.427C228.209 228.283 227.518 232.433 227.212 236.471C228.509 235.154 227.861 234.412 228.383 232.782C228.729 231.703 228.676 230.561 228.839 229.443C228.95 228.68 229.346 228.31 229.621 227.627C229.993 226.703 229.891 225.577 230.361 224.502L230.677 224.451L231.294 224.509L231.549 223.308L232.04 223.327L232.672 221.065L231.977 220.234L232.53 219.154C233.228 219.386 233.305 219.398 233.982 219.286L244.829 203.931C245.717 202.082 248.499 200.352 248.899 198.61L248.987 198.143L249.519 198.232C250.436 197.643 251.313 197.061 252.136 196.343L252.825 195.764C253.69 195.289 256.071 194.344 256.599 193.561C256.858 193.178 256.086 192.902 257.001 192.214C258.563 191.038 258.96 191.382 259.969 189.569Z"/>
	<path fill="#16A8CF" fill-opacity="0.98823529" d="M259.969 189.569C258.96 191.382 258.563 191.038 257.001 192.214C256.086 192.902 256.858 193.178 256.599 193.561C256.071 194.344 253.69 195.289 252.825 195.764L252.136 196.343C251.313 197.061 250.436 197.643 249.519 198.232L248.987 198.143L248.899 198.61C248.499 200.352 245.717 202.082 244.829 203.931L233.982 219.286C233.305 219.398 233.228 219.386 232.53 219.154L231.977 220.234L232.672 221.065L232.04 223.327L231.549 223.308L231.294 224.509L230.677 224.451L230.361 224.502C229.891 225.577 229.993 226.703 229.621 227.627C229.346 228.31 228.95 228.68 228.839 229.443C228.676 230.561 228.729 231.703 228.383 232.782C227.861 234.412 228.509 235.154 227.212 236.471C227.518 232.433 228.209 228.283 229.452 224.427C234.203 209.7 246.298 196.631 259.969 189.569Z"/>
	<path fill="#16A8CF" d="M281.005 211.503C281.678 211.398 282.34 211.374 283.021 211.379C284.558 211.392 285.951 211.493 287.029 212.713C288.136 213.964 288.176 215.835 287.95 217.418C287.22 222.514 284.113 224.655 280.325 227.468C276.382 230.395 272.484 236.239 271.333 240.962C270.081 246.1 270.377 251.44 269.647 256.649C268.193 257.232 265.964 257 264.387 257.039C263.094 257.054 261.86 256.637 260.772 255.941C259.205 254.939 258.541 253.864 258.151 252.064C256.079 242.506 258.413 233.392 263.683 225.349C268.018 218.731 272.979 213.196 281.005 211.503Z"/>
</svg>
