<?xml version="1.0" encoding="utf-8" ?>
<svg xmlns="http://www.w3.org/2000/svg" xmlns:xlink="http://www.w3.org/1999/xlink" width="728" height="729">
	<path fill="#18AAC1" d="M0 349.658L-0 -0L349.333 0L378.309 0L728 0L728 346.816L728 381.832L728 729L383.278 729L345.069 729L-0 729L0 379.344L0 349.658ZM355.426 14.4217C270.482 15.9085 185.388 50.6905 124.222 109.797C121.333 112.589 118.213 115.09 115.417 118L109.7 124.407L93.7193 142.109C64.0043 178.45 41.6595 220.48 28.4965 265.544L22.532 288.876C22.0022 291.415 21.2144 293.943 20.8995 296.513C20.2607 301.725 18.939 306.961 18.1342 312.174C16.4127 323.325 15.2097 334.85 14.7048 346.126C14.077 360.148 14.114 374.371 15.1975 388.349L16.4856 404.901C21.7996 447.116 33.8112 486.868 53.1006 524.816L68.697 552.122C71.233 556.123 73.7126 560.317 76.5934 564.074L87.1604 578.608C96.2906 590.321 106.149 601.721 116.625 612.261L124.835 619.899L141.073 634.573C182.137 668.876 232.76 693.976 284.931 705.729C293.606 707.684 302.453 709.758 311.283 710.9C331.336 713.495 351.403 715.357 371.664 714.627C444.953 713.063 515.406 688.497 574.017 644.499C585.104 636.176 595.309 627.251 605.329 617.701C607.385 615.741 609.749 613.999 611.699 611.952C619.541 603.719 627.465 595.286 634.637 586.452C672.161 540.24 697.363 485.883 708.049 427.326C711.233 409.878 713.139 392.303 713.487 374.56L713.711 362.656L713.226 344.71C712.315 329.005 710.468 313.286 707.51 297.835C695.299 234.037 664.196 171.953 619.094 125C615.702 121.469 612.595 117.681 609.012 114.332C601.755 107.551 594.447 100.518 586.744 94.2502C533.793 51.167 468.918 22.7353 400.733 16.0091C385.612 14.5175 370.604 14.2685 355.426 14.4217ZM0 379.344L-0 729L345.069 729C343.203 728.462 340.978 728.422 339.032 728.237L325.375 727.15L292.509 722.057C245.928 712.904 200.948 694.021 161.542 667.597L134.772 647.835C131.272 645.216 128.092 642.063 124.775 639.224C115.673 631.436 107.161 623.155 99.0042 614.382L82.794 596.226C68.3815 578.679 55.8695 559.706 44.6768 539.982C40.6011 532.799 37.0387 525.183 33.5944 517.683C21.89 492.198 13.2305 465.863 7.36502 438.436C5.34663 428.998 4.08794 419.432 2.81261 409.885L1.64661 401.487C0.999808 394.284 1.12439 386.898 0.0644211 379.755L0 379.344ZM378.309 0L378.668 0.0599189C384.948 1.05493 391.383 0.855713 397.708 1.41016C410.16 2.50192 422.952 4.2927 435.198 6.82658C465.198 13.0341 494.074 22.6558 521.784 35.7205C552.668 50.2814 581.667 70.3422 607.141 92.9704L614.973 100.637C616.186 101.762 617.558 102.707 618.767 103.861L631.084 116.843C640.571 126.901 649.436 137.528 657.602 148.697C690.454 193.634 713.801 246.79 722.838 301.853L726.865 332.82C727.291 337.472 727.019 342.225 728 346.816L728 0L378.309 0ZM0 349.658C0.513777 347.487 0.510352 344.918 0.681622 342.672L1.69891 326.721C2.29982 318.898 3.66784 310.725 5.05606 302.994C8.86572 281.777 13.9984 260.731 21.4056 240.455C33.7089 206.775 50.8167 175.15 72.1756 146.356C110.684 94.442 163.113 53.6557 222.516 28.2986C244.165 19.0577 267.257 12.19 290.29 7.37324C304.072 4.49118 318.196 2.53439 332.21 1.23792C337.778 0.722816 343.427 0.900854 348.975 0.0574931L349.333 0L-0 -0L0 349.658ZM728 381.832L727.91 382.322C726.978 387.54 727.282 392.881 726.708 398.125C725.151 412.346 723.394 426.707 720.263 440.689C716.454 457.701 711.769 474.483 705.726 490.844C686.556 542.737 654.925 591.556 614.295 629.19C602.458 640.155 590.509 650.743 577.313 660.107C564.648 669.093 551.602 677.625 537.939 685.031C504.073 703.39 467.554 716.134 429.697 723.168L401.436 727.292L390.349 728.151C388.021 728.315 385.527 728.337 383.278 729L728 729L728 381.832Z"/>
	<path fill="#18AAC1" d="M211.297 186.344C212.306 186.016 212.747 186.005 213.772 186.278C216.855 189.342 217.014 195.788 218.665 199.768C219.563 201.934 220.886 203.641 222.378 205.429C225.345 208.983 228.736 212.251 232.053 215.478C234.426 217.787 240.796 222.142 241.084 225.677C241.544 231.343 234.908 231.375 231.011 233.339C229.424 234.139 228.173 235.484 226.992 236.779C224.676 239.32 221.324 242.597 219.948 245.719C218.083 249.953 219.096 256.396 215.974 260.027C214.075 260.564 212.66 260.378 210.833 259.671C208.293 257.589 208.246 253.577 207.077 250.695C206.319 248.827 205.235 247.005 204.044 245.382C200.322 240.311 194.927 234.794 189.629 231.466C187.338 230.027 184.621 228.989 182.511 227.315C181.592 226.587 181.104 225.948 180.633 224.882C180.741 224.065 180.94 223.612 181.497 222.991C183.25 221.041 185.656 219.445 187.755 217.875C191.235 215.272 194.767 212.621 197.824 209.522C203.296 203.974 205.455 196.169 209.142 189.454C209.772 188.308 210.293 187.205 211.297 186.344ZM207.885 214.82C205.81 215.712 203.516 219.051 202.743 221.134C202.205 222.585 202.68 224.349 203.353 225.677C205.654 230.221 209.729 233.512 214.128 235.94C214.842 235.659 214.84 235.77 215.292 235.077C218.038 231.546 220.857 227.733 222.182 223.405C219.888 219.139 216.775 216.727 212.144 215.257C210.774 214.822 209.309 214.83 207.885 214.82Z"/>
	<path fill="#18AAC1" d="M531.898 173.529C532.146 173.576 532.337 173.597 532.574 173.729C536.618 175.975 535.73 189.663 539.367 194.127C541.131 196.292 543.596 197.954 545.829 199.603C548.136 201.306 550.361 203.048 552.879 204.436C554.614 205.393 557.999 206.715 559.354 207.996C559.902 208.515 560.617 209.924 560.895 210.639C561.273 211.611 561.293 212.806 560.834 213.754C559.546 216.415 555.225 217.54 552.675 218.588C549.21 220.012 546.463 222.63 543.825 225.219C541.2 227.796 537.787 230.889 536.693 234.503C535.869 237.224 535.847 240.435 535.465 243.265C535.223 245.058 534.982 246.923 534.207 248.577C533.761 249.529 533.127 250.109 532.102 250.4C530.956 250.724 529.674 250.212 528.658 249.704C524.395 245.683 524.715 238.777 522.313 233.751L522 233.112C519.391 227.494 514.028 222.076 508.365 219.575C506.188 218.614 503.834 218.145 501.678 217.196C500.334 216.604 499.23 216.1 498.759 214.606C498.535 213.893 498.129 210.191 498.439 209.589C498.603 209.271 499.617 208.615 499.881 208.427C502.118 206.831 504.618 205.787 506.93 204.319C509.606 202.621 512.363 200.803 514.603 198.541C517.123 195.998 519.651 193.02 521.369 189.872C522.904 187.058 523.921 183.968 525.298 181.077C526.751 178.023 528.55 174.735 531.898 173.529ZM529.746 200.938C525.808 202.852 521.029 206.373 519.515 210.71C519.163 211.717 519.396 212.586 519.68 213.574C522.255 216.837 525.548 219.172 528.701 221.835C532.177 220.807 535.548 219.327 537.516 216.066C538.637 214.209 539.043 211.444 538.43 209.361C537.44 205.997 533.838 202.971 531.315 200.72C530.704 200.73 530.337 200.746 529.746 200.938Z"/>
	<path fill="#18AAC1" d="M321.387 192.727C329.012 192.331 336.74 192.5 344.243 194.012C348.596 194.89 353.048 196.162 357.286 197.494C361.853 198.929 367.928 202.349 372.728 201.623L373.256 201.534C376.791 200.969 380.025 198.616 383.337 197.298C388.996 195.047 395.402 193.782 401.444 193.121C405.943 192.629 410.486 192.35 415.007 192.672C420.797 193.085 426.416 194.506 432.036 195.877C446.982 199.525 461.778 204.112 473.959 213.953C487.706 225.058 500.314 238.989 507.518 255.309C509.427 259.634 510.672 264.127 512.055 268.633C513.637 273.786 515.545 279.012 516.309 284.366C517.446 292.342 516.82 300.344 517.694 308.324C519.252 308.63 521.117 308.385 522.72 308.363L532.428 308.245L560.428 308.178C560.636 311.168 561.974 319.26 560.151 321.559C558.189 322.369 555.754 322.065 553.658 322.171L531.868 322.465L476.04 322.495L474.911 332.829L494.949 332.452L525.322 332.495C533.99 332.523 542.784 332.271 551.429 332.907C554.61 333.141 557.829 333.726 560.992 334.161C561.233 337.655 561.723 341.165 560.654 344.566C560.133 345.134 559.7 345.265 558.964 345.409C555.269 346.129 550.883 345.784 547.103 345.817L519.175 345.7C514.071 345.701 508.829 345.467 503.767 346.155C501.924 349.319 501.205 353.725 499.98 357.232L494.221 372.457C490.654 383.262 488.208 394.615 485.411 405.636L479.281 428.235C481.711 428.842 484.643 428.722 487.147 428.754L502.274 428.633L530.872 428.825C535.547 428.848 554.961 428.261 557.834 430.25C559.066 431.103 559.518 433.059 559.717 434.471C560.352 438.966 560.021 443.877 560.028 448.422L560.026 474.765L559.988 515.782C559.975 525.32 560.16 535.021 559.496 544.536C559.368 546.369 559.108 550.778 557.847 552.089C556.709 553.273 553.99 553.781 552.4 553.904C548.694 554.19 544.869 553.977 541.148 554.032L512.352 554.146L430.396 554.183L196.836 553.785C192.826 553.663 186.062 553.77 183.26 550.435C182.422 549.438 182.227 548.022 182.088 546.773C181.444 540.98 181.592 534.755 181.56 528.907L181.56 500.386L182.362 428.531L261.491 428.546L261.6 428.286C256.691 406.617 251.435 384.583 244.124 363.59L240.732 355.072C239.814 352.648 239.251 349.142 237.77 347.058C235.381 343.695 196.276 345.631 188.905 345.528C186.521 345.495 184.179 345.177 181.824 344.83C180.917 341.247 180.82 337.83 180.85 334.147C185.248 332.36 190.373 332.603 195.045 332.635L209.593 332.731L247.235 332.821C253.827 332.87 260.45 333.392 267.034 333.099L267.018 322.983C263.19 322.26 259.174 322.413 255.293 322.465L240.29 322.66L201.085 322.491L190.813 322.5C188.721 322.496 186.437 322.621 184.403 322.067C183.47 321.813 182.579 321.641 182.122 320.756C180.824 318.238 180.8 311.873 181.595 309.149C184.748 306.622 218.436 308.935 224.242 309.023C224.007 301.292 223.644 293.242 224.458 285.554C225.151 279.001 226.914 272.552 228.883 266.282C229.873 263.125 230.81 259.805 232.196 256.799C235.78 249.028 240.975 241.731 246.161 234.981C248.653 231.737 251.054 228.354 253.751 225.278C259.553 218.659 267.368 213.201 274.915 208.747C277.601 207.162 280.222 205.363 282.999 203.947C294.411 198.13 308.621 193.611 321.387 192.727ZM249.799 345.1C249.813 347.782 251.732 351.073 252.859 353.522L256.491 362.299C257.801 365.765 258.864 369.292 259.88 372.853L279.804 447.639C281.711 454.68 282.782 462.064 285.093 468.973C287.033 474.773 289.513 481.269 293.98 485.618C296.02 487.604 298.367 489.079 300.99 490.173L301.425 490.361C305.031 491.808 313.547 491.702 317.117 490.038C323.197 487.203 326.749 479.977 329.435 474.191C331.645 469.432 333.654 464.627 335.352 459.66C339.608 447.216 343.732 434.429 351.781 423.87C354.119 420.804 357.048 417.497 360.618 415.861C367.366 412.768 374.582 413.127 381.344 415.869C386.029 417.769 388.778 422.452 391.201 426.646C394.491 432.341 397.244 438.152 399.751 444.231L405.608 458.643C409.39 468.535 412.531 479.368 420.735 486.708C422.274 488.084 423.857 489.489 425.764 490.324C430.324 492.32 438.206 491.846 442.739 489.933C446.918 488.17 450.089 483.884 451.697 479.758L491.057 345.717C487.5 345.356 483.98 345.245 480.409 345.215C478.388 345.198 476.488 344.953 474.713 346.067C473.526 348.04 472.985 350.276 472.281 352.454C471.269 355.583 470.224 358.719 468.919 361.74C468.217 363.365 467.411 365.257 466 366.394C464.751 367.4 463.158 367.898 461.624 368.278C451.651 370.751 441.068 370.982 430.852 371.079C420.821 371.174 407.864 371.776 398.941 366.499C391.778 362.263 391.892 354.736 389.392 347.685C389.344 347.552 388.904 346.18 388.81 346.113C387.729 345.352 382.745 345.567 381.402 345.545L364.299 345.492C360.507 345.522 356.673 345.449 352.919 346.052C351.444 352.939 349.746 361.799 343.378 365.971C340.715 367.715 337.376 368.75 334.258 369.287C324.976 370.885 315.241 370.646 305.85 370.645C298.942 370.644 291.345 371.048 284.599 369.413C279.994 368.297 275.414 366.659 272.894 362.377C270.936 359.047 269.648 354.598 268.572 350.89C268.076 349.179 267.708 347.199 266.945 345.597C262.859 345.212 258.971 344.912 254.854 344.916C253.28 344.917 251.315 344.736 249.799 345.1ZM316.225 206.918C311.346 207.579 306.329 208.15 301.592 209.524C281.821 215.262 264.582 229.678 252.316 245.858C245.802 254.451 242.563 263.869 239.657 274.087C237.046 283.263 235.175 292.343 235.707 301.938C235.802 303.652 235.714 306.24 236.2 307.847L236.409 308.244L252.575 308.678L260.924 309.316C262.061 309.41 263.446 309.738 264.512 309.315C266.161 306.492 267.486 303.564 268.682 300.524C269.971 297.247 271.256 293.348 273.934 290.92C276.377 288.705 280.117 287.123 283.298 286.305C290.166 284.541 297.692 284.517 304.748 284.392C316.444 284.185 328.477 283.745 339.645 287.72C344.565 289.471 348.161 292.84 350.319 297.58C352.087 301.466 353.749 305.069 356.07 308.68C362.865 308.065 370.497 307.762 377.296 308.393C380.542 308.695 383.775 309.734 386.993 309.878C391.523 299.6 391.065 291.447 403.002 286.744C405.064 285.932 407.389 285.543 409.576 285.224C418.051 284.147 426.175 283.99 434.696 284.012C442.917 284.033 451.661 283.966 459.583 286.442C462.356 287.309 464.957 288.213 467.237 290.078C472.115 294.07 475.057 303.256 476.885 309.078L491.485 308.45C495.336 308.371 501.71 309.079 505.047 307.082C506.058 305.431 505.906 303.335 505.876 301.473C505.799 296.643 505.575 291.115 504.354 286.437L504.058 285.522C502.171 279.824 501.517 273.766 499.435 268.062C493.252 251.121 482.661 237.299 468.719 225.977C464.956 222.921 461.131 219.871 456.796 217.643C438.598 208.292 417.47 205.064 397.319 208.227C393.668 208.801 389.797 209.354 386.28 210.504C383.691 211.351 381.251 212.668 378.688 213.605C373.924 215.345 368.708 215.742 363.858 214.027C360.649 212.892 357.67 211.291 354.388 210.351C344.708 207.578 335.872 206.768 325.816 206.699C322.708 206.678 319.305 206.492 316.225 206.918ZM302.684 505.102C301.637 504.948 300.352 504.872 299.438 504.312C298.813 503.929 299.025 504.004 298.477 503.811C291.597 501.394 283.934 495.767 279.776 489.747L279.448 489.263C273.329 480.364 271.889 469.04 269.174 458.795C267.789 453.57 266.038 448.501 264.963 443.188C257.003 442.209 248.599 442.878 240.572 442.897L195.119 442.454C193.873 452.263 194.383 462.535 194.401 472.422L194.3 514.804L546.973 514.579L547.879 442.847L477.287 442.07L469.658 470.452C468.599 474.986 467.006 479.398 465.218 483.691C464.037 486.525 462.835 489.451 460.926 491.887C458.508 494.974 454.95 497.792 451.606 499.823C445.44 503.569 435.88 505.586 428.79 504.591C427.138 504.359 425.395 503.713 423.753 503.315C414.774 500.381 407.158 493.86 402.864 485.427C395.851 471.655 392.711 456.421 384.583 443.167C380.569 442.254 376.328 442.209 372.225 442.129L356.18 442.062L348.069 464.276C342.417 480.2 336.208 496.426 319.535 503.579C313.953 505.974 308.478 504.582 302.684 505.102ZM546.801 527.888L215.606 528.141C214.034 528.301 212.129 528.01 210.536 527.933C205.222 527.678 199.895 526.89 194.572 527.138L194.136 539.506L547.077 539.295C546.64 535.646 546.956 531.598 546.801 527.888ZM418.538 299.165C414.319 299.322 407.609 298.934 404.493 302.187C403.229 303.506 402.658 305.283 402.152 307.001C400.251 313.449 401.044 320.374 401.13 327.015L401.293 340.117L401.735 343.665L401.821 344.278C402.386 348.143 404.523 353.794 407.787 356.156C409.225 357.197 410.781 357.859 412.529 358.161C416.468 358.841 420.989 358.423 424.985 358.393L445.522 358.072C448.346 357.924 455.245 358.176 457.15 356.135C459.5 353.618 460.22 350.684 460.918 347.421C462.573 339.679 462.181 332.128 462.543 324.277C462.745 319.892 463.403 315.575 463.125 311.168C462.906 307.71 461.951 304.62 459.185 302.356C457.772 301.2 456.185 300.47 454.412 300.052C449.623 298.922 444.234 299.273 439.326 299.247L418.538 299.165ZM294.989 298.809C291.137 298.994 285.833 298.711 282.966 301.683C276.686 308.194 278.484 327.125 278.92 335.566C279.197 340.912 280.003 346.251 282.041 351.222C282.67 352.753 283.374 354.421 284.572 355.599C285.846 356.852 287.631 357.103 289.329 357.304C294.412 357.903 299.612 357.736 304.722 357.749L324.21 357.743C328.317 357.591 332.384 358.191 335.382 354.805C338.192 351.633 339.015 347.293 339.535 343.225C340.375 336.639 340.264 330.186 340.329 323.569C340.365 319.86 340.71 316.042 340.422 312.344C340.165 309.05 338.798 304.395 336.154 302.232C334.808 301.131 333.123 300.58 331.486 300.077C325.213 298.148 317.191 298.734 310.607 298.721L294.989 298.809ZM354.516 322.319L353.2 322.574C352.335 324.718 352.313 330.7 353.18 332.899C358.663 333.672 364.835 332.769 370.388 332.567C376.154 332.358 382.218 332.771 387.945 333.462L389.337 333.413L389.466 322.525L354.516 322.319Z"/>
	<path fill="#B9DBDE" d="M367.978 426.477C371.572 426.145 375.117 426.364 378.712 426.545L379.978 432.21L374.062 432.224L361.879 432.412C363.811 430.302 365.702 428.224 367.978 426.477Z"/>
	<path fill="#C5D3EB" d="M215.606 528.141C218.215 527.694 221.084 527.965 223.742 527.803L246.096 527.105L267.972 527.544L357.719 527.058L421.153 526.575L476.497 527.362L515.523 526.902L530.959 527.098L542.155 526.671C543.656 526.631 545.618 526.371 547.028 526.931L546.801 527.888L215.606 528.141Z"/>
</svg>
