<?xml version="1.0" encoding="utf-8" ?>
<svg xmlns="http://www.w3.org/2000/svg" xmlns:xlink="http://www.w3.org/1999/xlink" width="728" height="729">
	<path fill="#18AAC2" d="M0 349.658L-0 -0L349.333 0L378.309 0L728 0L728 346.816L728 381.832L728 729L383.278 729L345.069 729L-0 729L0 379.344L0 349.658ZM355.426 14.4217C270.482 15.9076 185.388 50.6903 124.223 109.797C121.333 112.589 118.213 115.09 115.417 118L109.7 124.407L93.7193 142.109C64.004 178.448 41.6585 220.482 28.4965 265.544L22.5319 288.876C22.0016 291.417 21.218 293.944 20.9006 296.516C20.3338 301.108 19.126 305.688 18.4222 310.274C16.6081 322.094 15.2397 334.18 14.7048 346.126C14.077 360.148 14.1139 374.371 15.1975 388.349L16.4856 404.901C21.7997 447.117 33.8128 486.867 53.0998 524.816C58.1671 534.787 63.7099 544.375 69.7838 553.77C72.0402 557.26 74.1525 560.929 76.673 564.236L87.1604 578.608C96.2634 590.328 106.157 601.731 116.625 612.261C162.193 658.097 221.847 691.518 284.931 705.729C293.606 707.684 302.454 709.758 311.283 710.9C331.336 713.495 351.403 715.357 371.664 714.627C449.162 712.973 522.848 685.656 583.29 637.26C591.026 631.066 598.152 624.538 605.317 617.712C607.378 615.749 609.746 614.002 611.699 611.952C619.541 603.719 627.466 595.286 634.638 586.452C672.161 540.238 697.362 485.885 708.049 427.326C711.233 409.878 713.138 392.303 713.487 374.56C713.568 370.423 713.835 366.242 713.694 362.108L713.226 344.704C712.332 329.136 710.467 313.597 707.591 298.271C697.086 242.289 672.395 190.609 637.286 145.983L618.027 123.873C615.031 120.676 612.217 117.327 609.011 114.332C601.755 107.551 594.446 100.517 586.744 94.2502C533.796 51.1696 468.914 22.7332 400.733 16.0091C385.611 14.5179 370.605 14.2686 355.426 14.4217ZM0 379.344L-0 729L345.069 729C343.203 728.462 340.978 728.422 339.032 728.237L325.375 727.15L292.509 722.057C245.925 712.899 200.952 694.024 161.542 667.597L134.772 647.835C131.271 645.216 128.095 642.061 124.775 639.224C115.667 631.443 107.161 623.154 99.0042 614.382C81.2846 595.325 65.6018 575.025 52.0694 552.757C30.7084 517.608 15.9551 478.603 7.36502 438.436C5.34662 428.998 4.08784 419.432 2.81251 409.885L1.6466 401.487C0.999894 394.284 1.12384 386.898 0.0643856 379.755L0 379.344ZM378.309 0L378.668 0.05994C384.947 1.05516 391.384 0.855757 397.708 1.41016C410.16 2.50189 422.952 4.2927 435.198 6.82658C465.197 13.0341 494.074 22.6554 521.784 35.7205C552.668 50.2818 581.666 70.3416 607.141 92.9704L614.973 100.637C616.186 101.762 617.558 102.707 618.767 103.861L631.084 116.843C640.568 126.897 649.459 137.527 657.608 148.705C690.43 193.728 713.79 246.721 722.838 301.853L726.865 332.82C727.291 337.472 727.019 342.225 728 346.816L728 0L378.309 0ZM0 349.658C0.533995 347.401 0.532734 344.713 0.703697 342.377L1.69883 326.72C2.29944 318.898 3.66792 310.725 5.05606 302.994C8.86571 281.777 13.9981 260.731 21.4056 240.455C33.7093 206.775 50.8166 175.15 72.1756 146.356C110.682 94.4444 163.114 53.6521 222.516 28.2986C244.166 19.0583 267.256 12.1911 290.29 7.37325C304.071 4.49073 318.196 2.53416 332.21 1.23791C337.778 0.722888 343.427 0.900855 348.975 0.0574932L349.333 0L-0 -0L0 349.658ZM728 381.832L727.91 382.322C726.979 387.538 727.282 392.877 726.708 398.12C725.151 412.343 723.392 426.703 720.263 440.688C716.457 457.7 711.769 474.484 705.726 490.844C686.555 542.737 654.924 591.556 614.295 629.19C602.458 640.154 590.508 650.744 577.313 660.107C564.648 669.093 551.601 677.625 537.939 685.031C503.676 703.607 466.825 716.329 428.523 723.385L400.646 727.37C395.058 727.911 388.671 727.593 383.278 729L728 729L728 381.832Z"/>
	<path fill="#18AAC2" d="M306.376 163.524C308.311 163.136 310.766 163.305 312.777 163.306C327.253 163.311 341.266 167.969 355.324 170.935C359.15 171.742 362.966 172.897 366.903 172.984C371.673 173.088 377.009 170.891 381.65 169.747C389.061 167.921 396.287 166.128 403.852 165.028C421.009 162.532 439.478 163.253 453.856 174.09C465.24 182.67 473.403 197.449 475.244 211.445C475.998 217.177 475.519 223.065 474.965 228.794L471.395 255.063L469.788 265.431C469.444 267.471 469.233 269.655 467.949 271.342C465.92 272.519 462.506 272.473 460.194 272.66L435.465 273.459L328.472 273.69L294.247 273.72C285.945 273.73 277.592 273.91 269.308 273.304C267.714 273.188 265.741 272.903 264.444 271.883C261.056 269.217 260.16 251.071 259.524 246.144L257.285 231.464C255.122 215.072 256.633 197.203 267.143 183.756C269.443 180.814 272.507 178.421 275.459 176.164C280.539 172.279 285.939 168.7 292.004 166.55C296.659 164.901 301.499 164.142 306.376 163.524ZM306.104 177.773C304.145 177.936 302.222 178.123 300.305 178.577C288.925 181.275 280.419 187.85 274.394 197.912C267.899 208.758 269.291 221.584 270.529 233.564L272.331 251.457C272.623 253.942 273.198 256.378 273.442 258.864L436.889 258.536L450.768 259.003C453.431 259.116 456.46 259.526 459.091 259.04L459.433 258.959C460.477 256.936 459.876 252.215 460.12 249.797C461.108 239.985 463.561 230.005 463.591 220.13C463.604 216.014 463.172 212.347 461.927 208.413C458.553 197.752 451.848 187.218 441.69 181.93C439.352 180.712 436.938 179.939 434.405 179.231C423.937 176.305 410.016 178.153 399.58 180.843C394.134 182.247 388.883 184.131 383.334 185.196C377.359 186.343 370.973 186.692 364.89 186.639C359.213 186.59 352.928 185.997 347.362 184.862C342.575 183.886 337.988 182.315 333.276 181.078C324.436 178.759 315.249 177.455 306.104 177.773Z"/>
	<path fill="#18AAC2" d="M304.061 193.364C305.852 193.187 307.863 193.055 309.533 193.785C309.715 194.193 309.923 194.613 309.975 195.064C310.097 196.121 309.613 197.462 309.244 198.433C307.6 202.762 304.506 205.309 301.553 208.679C299.716 210.774 297.941 213.146 296.808 215.702C294.488 220.93 295.472 227.936 294.798 233.59C294.651 234.829 294.672 236.228 293.882 237.245C292.548 237.606 291.09 237.176 289.753 236.938C288.828 236.702 287.938 236.437 287.081 236.006C285.676 235.298 284.172 234.316 283.707 232.769C281.513 225.473 283.043 214.964 286.572 208.264C290.195 201.386 296.649 195.683 304.061 193.364Z"/>
	<path fill="#18AAC2" d="M347.961 296.689L389.784 296.541C397.221 296.544 405.237 296.206 412.608 297.232C416.586 297.786 420.997 298.795 424.386 301.052C433.061 306.829 435.473 316.433 438.037 325.894L443.015 347.861C444.499 348.416 446.815 348.282 448.424 348.394C453.966 348.777 460.6 348.646 465.892 350.39C467.74 350.999 468.896 352.138 469.729 353.882C472.641 359.977 468.585 365.002 466.216 370.278C464.966 373.063 464.091 376.069 463.035 378.936C470.847 378.501 477.856 376.156 485.767 376.836C492.166 377.387 498.285 379.125 504.452 380.821L524.196 386.349C531.019 388.304 555.169 393.914 558.789 399.186C560.24 401.3 560.273 404.554 560.411 407.032L560.685 434.881L560.704 488.113L560.727 525.404C560.674 532.8 561.029 540.489 559.688 547.778C550.236 549.325 541.012 549.144 531.475 549.085L501.227 548.921L425.638 548.791L384.817 548.848L348.075 549.013L244.569 549.231L203.004 549.486C195.567 549.501 188.02 549.734 180.599 549.25C177.818 549.069 175.386 548.713 172.963 547.277C172.262 546.062 171.431 544.753 171.147 543.367C170.025 537.903 170.526 531.66 170.509 526.101L170.297 503.857L170.237 446.371L170.567 420.981C170.704 415.876 170.712 410.653 171.353 405.58C171.669 403.072 172.15 398.843 174.044 397.076C175.778 395.46 178.068 394.474 180.248 393.61C186.184 391.259 192.681 390.191 198.824 388.489C215.335 383.914 232.013 378.407 249.193 377.001C255.186 376.511 261.401 378.024 267.392 378.449C266.796 375.602 266.11 372.838 264.852 370.195C263.443 367.234 261.446 364.266 260.614 361.075C259.665 357.434 260.548 353.943 262.329 350.735C268.273 347.296 276.753 348.972 283.421 348.821C285.139 348.782 288.04 348.819 289.218 347.367C290.634 345.62 290.721 342.651 291.041 340.5L292.614 330.617C293.616 324.891 295.215 319.541 297.223 314.101C298.696 310.109 299.989 306.412 303.033 303.313C305.331 300.974 308.496 299.057 311.634 298.128C317.031 296.531 323.31 296.804 328.888 296.768L347.961 296.689ZM246.266 390.606C238.05 391.78 229.991 394.029 221.956 396.078L200.272 401.452C195.202 402.762 189.926 403.159 185.237 405.64L184.522 536.771L546.768 537.072C546.046 525.167 546.726 512.989 546.796 501.059L546.831 440.05C546.838 428.599 547.889 416.346 546.247 405.031L493.227 391.224C487.42 390.259 480.49 389.915 474.766 391.402L474.156 391.556C469.031 392.947 460.868 397.24 458.136 401.846C455.372 406.506 455.479 414.437 455.094 419.77L452.942 467.044C452.542 477.366 452.597 488.145 450.565 498.294C449.646 502.883 447.839 507.784 445.522 511.853C442.791 516.648 437.12 520.881 431.858 522.436C425.015 524.457 415.981 524.034 409.692 520.387C401.39 515.572 397.34 505.493 395.208 496.636C393.878 491.11 393.202 485.324 392.305 479.705L387.673 447.288C386.161 434.357 386.161 419.251 380.808 407.252C379.041 403.292 375.132 399.248 371.435 396.994C368.811 395.394 364.614 395.062 361.638 395.808C357.602 396.82 353.934 399.949 351.89 403.559C349.852 407.159 349.145 411.368 348.26 415.362C345.345 428.51 344.279 441.718 342.56 455.045L338.3 484.458C337.051 492.675 336.026 502.079 331.872 509.428C328.02 516.241 323.036 520.08 315.813 522.815C312.034 524.245 307.448 524.891 303.482 524.073L302.907 523.96C295.721 522.452 289.608 517.839 285.717 511.726C283.105 507.622 281.023 502.512 279.93 497.759C278.213 490.291 278.168 481.948 277.766 474.314L276.234 437.997L275.709 422.382C275.464 415.412 275.442 405.701 271.443 399.717C268.294 395.007 259.592 391.906 254.234 390.682C251.609 390.083 248.916 390.328 246.266 390.606ZM324.52 311.286C321.93 311.343 315.073 310.761 313.206 312.527C312.014 313.653 311.41 315.563 310.963 317.093C310.005 320.378 309.515 323.878 308.752 327.222L302.012 354.343C301.325 356.686 300.354 361.085 298.535 362.696C297.546 363.572 294.555 363.748 293.178 363.819L276.864 363.12C277.28 369.065 279.142 373.579 281.114 379.118C283.858 386.826 286.918 394.697 288.187 402.814C289.837 413.365 289.452 424.402 289.827 435.045L291.952 471.297C292.411 478.712 292.376 486.982 294.189 494.176C295.481 499.304 297.582 504.239 301.612 507.8C303.885 509.809 306.836 511.849 309.989 511.525C313.107 511.205 315.685 509.056 317.521 506.648C324.833 497.057 325.172 482.551 326.495 471.016L331.192 439.432C333.933 418.809 334.834 385.514 361.421 381.531C368.342 380.495 375.579 382.566 381.137 386.747C391.473 394.522 396.421 407.544 398.09 419.93L400.53 441.052L404.009 462.032C405.709 474.223 405.906 487.233 410.727 498.686C413.329 504.251 415.122 508.54 421.33 510.88C423.374 511.65 425.459 511.948 427.516 511.044C430.349 509.798 432.903 507.54 433.917 504.569C435.033 501.302 435.473 497.379 435.954 493.973L438.022 473.824L441.194 435.189C441.907 424.96 442.123 414.489 443.603 404.345C444.422 398.732 446.593 393.744 448.32 388.4C449.501 384.741 450.187 380.923 451.396 377.295L456.473 363.278C452.251 363.749 447.992 364.518 443.764 364.8C430.727 365.668 417.369 365.107 404.293 365.225L347.542 365.499L329.621 365.437C324.266 365.458 318.701 365.685 313.449 364.505C313.075 361.33 312.924 358.229 312.932 355.033C312.937 353.106 312.806 351.203 313.498 349.372C313.76 349.149 313.976 348.86 314.283 348.705C314.774 348.456 316.043 348.506 316.653 348.446C319.322 348.181 321.957 348.111 324.637 348.091L358.627 348.271L409.876 348.111C416.378 348.02 422.904 348.441 429.393 347.956C427.229 338.686 425.669 330.06 421.912 321.193C420.276 317.332 419.177 314.453 416.039 311.52L324.52 311.286Z"/>
</svg>
