<?xml version="1.0" encoding="utf-8" ?>
<svg xmlns="http://www.w3.org/2000/svg" xmlns:xlink="http://www.w3.org/1999/xlink" width="728" height="729">
	<path fill="#18AAC3" d="M0 349.658L-0 -0L349.333 0L377.958 0L728 0L728 346.816L728 381.832L728 729L383.278 729L345.069 729L-0 729L0 379.344L0 349.658ZM355.426 14.4221C270.485 15.9051 185.384 50.6938 124.223 109.797C121.333 112.589 118.214 115.09 115.417 118L109.7 124.407L93.7175 142.111C64.0013 178.459 41.6623 220.476 28.4965 265.544L22.5321 288.876C22.002 291.415 21.2158 293.943 20.8997 296.513C20.2584 301.726 18.9394 306.961 18.1345 312.174C16.413 323.325 15.2097 334.85 14.7048 346.126C14.077 360.148 14.1131 374.371 15.1975 388.349L16.4857 404.901C21.7999 447.117 33.8128 486.867 53.0998 524.816C58.1675 534.788 63.7122 544.373 69.7842 553.77C72.0419 557.264 74.16 560.927 76.6747 564.244L93.7147 586.912C100.697 595.696 108.725 604.317 116.625 612.261C162.204 658.089 221.842 691.517 284.931 705.729C293.523 707.665 302.314 709.736 311.054 710.897L372.188 714.611C453.424 712.919 533.541 682.015 594.328 627.912L606.183 616.899C607.979 615.237 610.016 613.717 611.698 611.951C619.541 603.72 627.466 595.286 634.637 586.452C672.16 540.231 697.361 485.891 708.049 427.326C711.233 409.878 713.138 392.303 713.487 374.56L713.711 362.656C713.345 350.205 713.132 337.735 711.682 325.345C704.68 265.547 683.276 209.785 648.436 160.711C639.226 147.737 629.208 135.78 618.327 124.194C615.228 120.894 612.324 117.427 609.012 114.332C601.755 107.551 594.446 100.517 586.744 94.2502C533.714 51.1025 468.976 22.8295 400.725 16.0075C385.616 14.4973 370.594 14.264 355.426 14.4221ZM0 379.344L-0 729L345.069 729C343.202 728.462 340.977 728.422 339.03 728.238L325.375 727.15L292.509 722.057C245.926 712.898 200.95 694.026 161.542 667.597L134.773 647.835C131.272 645.216 128.092 642.063 124.775 639.224C115.674 631.436 107.161 623.154 99.0043 614.382C77.9776 591.768 59.0918 566.81 44.4425 539.557C27.281 507.63 14.9436 473.872 7.36509 438.436C5.3463 428.997 4.08624 419.434 2.81251 409.885L1.64658 401.487C0.99993 394.284 1.12387 386.898 0.0643859 379.755L0 379.344ZM377.958 0C384.531 0.881478 391.133 0.832022 397.722 1.41163C410.179 2.50736 422.945 4.29618 435.198 6.82658C465.195 13.0214 494.082 22.6545 521.785 35.7198C547.909 48.0402 572.623 64.4184 595.038 82.5626C602.05 88.239 608.383 94.5227 614.973 100.637C616.186 101.762 617.558 102.707 618.767 103.861C625.594 110.377 632.104 117.6 638.282 124.726C640.595 127.394 643.163 129.968 645.294 132.769C652.803 142.639 660.477 152.268 667.327 162.63C688.354 194.44 704.195 228.891 714.54 265.601C717.168 274.925 719.618 284.363 721.378 293.899L726.13 324.989C726.968 332.1 726.51 339.843 728 346.816L728 0L377.958 0ZM0 349.658C0.543586 347.361 0.540828 344.602 0.714886 342.226L1.75784 326.02C2.67999 315.916 4.57069 305.689 6.34441 295.697C8.17885 285.363 10.8384 275.104 13.6744 265.01C23.9842 228.315 40.0642 193.737 61.1258 161.972L79.8806 136.356C82.7925 132.46 86.1119 128.899 89.2803 125.217C95.809 117.628 102.701 110.034 109.887 103.058L116.414 97.2304C164.986 51.758 224.906 21.2751 289.92 7.45132C303.803 4.49947 318.066 2.56207 332.19 1.24023C337.764 0.718536 343.419 0.901951 348.975 0.057493L349.333 0L-0 -0L0 349.658ZM728 381.832L727.91 382.322C726.979 387.538 727.282 392.877 726.708 398.12C725.152 412.342 723.394 426.704 720.263 440.688C716.454 457.7 711.77 474.483 705.726 490.844C686.553 542.745 654.926 591.555 614.295 629.19C602.458 640.154 590.509 650.744 577.313 660.107C564.648 669.093 551.601 677.625 537.939 685.031C503.675 703.608 466.825 716.326 428.523 723.385L400.646 727.37C395.058 727.911 388.671 727.593 383.278 729L728 729L728 381.832Z"/>
	<path fill="#18AAC3" d="M119.952 216.895L619.112 216.827L619.09 518.807C619.037 519.708 619.159 519.28 618.711 520.088L119.987 520.161L119.952 216.895ZM128.108 225.333L128.231 511.671L610.345 511.517C610.794 510.917 610.653 511.225 610.827 510.62L610.78 510.174C610.263 504.836 610.774 499 610.771 493.605L610.76 456.235L610.765 338.06L610.756 257.994L610.745 235.454C610.737 232.278 610.301 228.794 610.738 225.679C610.04 225.129 240.026 225.395 212.3 225.395L155.629 225.396C146.589 225.397 137.091 226 128.108 225.333Z"/>
	<path fill="#18AAC3" d="M502.202 487.127C504.646 486.601 507.766 486.949 510.299 486.951L527.306 486.965L596.354 486.863C597.227 489.093 597.047 493.723 596.918 496.164C596.884 496.793 596.554 496.865 596.106 497.27L502.658 497.236C502.191 497.002 501.785 496.985 501.64 496.441C501.221 494.865 501.614 492.697 501.608 491.047C501.605 490.316 501.381 488.852 501.56 488.195C501.67 487.795 501.988 487.483 502.202 487.127Z"/>
	<path fill="#18AAC3" d="M136.57 487.127C138.063 486.765 139.87 486.969 141.414 486.969L150.648 486.971L188.612 486.975L354.993 486.882C355.21 489.671 355.847 494.149 355.1 496.837L354.032 497.276L291.018 497.097L175.844 497.094L146.623 497.08L140.434 497.119C139.03 497.159 137.484 497.42 136.166 496.858C135.951 496.476 135.736 496.118 135.684 495.67C135.489 493.964 135.88 491.752 135.917 489.975C135.926 489.572 135.802 488.176 135.951 487.839C136.078 487.552 136.364 487.365 136.57 487.127Z"/>
	<path fill="#18AAC3" d="M134.202 241.228C139.833 242.015 146.022 241.557 151.722 241.559L183.92 241.564L296.68 241.567L500.131 241.554L566.056 241.561L604.834 241.282L604.829 475.025L604.397 475.703L134.259 475.763L134.202 241.228ZM202.99 380.45L201.174 395.522L198.126 418.072C196.803 426.795 196.174 437.072 190.103 444.06C186.354 448.376 180.705 450.994 174.969 451.208C163.606 451.63 156.81 440.808 154.671 431.012C153.608 426.146 153.645 421.158 153.347 416.212L151.968 382.85C151.694 375.369 152.268 366.903 149.172 359.95C147.968 357.247 144.819 355.108 142.691 353.076L142.597 466.789L142.562 467.184L596.353 467.29L596.319 352.322C593.6 355.134 588.803 356.194 586.756 359.715C584.786 363.106 584.741 368.602 584.437 372.46L582.922 406.584C582.431 417.589 583.293 431.687 577.547 441.504C574.959 445.925 570.794 448.994 565.839 450.216C561.135 451.376 554.753 450.579 550.629 447.997C541.306 442.161 540.079 428.913 538.585 419.139L534.638 391.197C533.94 384.879 533.834 378.076 532.3 371.9C530.757 365.687 528.753 359.736 522.836 356.387C520.509 355.069 518.293 355.115 515.778 355.844C512.908 356.676 510.292 358.862 508.948 361.53C506.956 365.482 506.365 371.059 505.624 375.432C505.215 377.852 504.47 380.245 504.186 382.68L499.736 418.498C498.637 425.681 497.951 433.653 494.448 440.141C491.819 445.01 487.733 448.678 482.353 450.17C476.957 451.666 472.291 451.523 467.412 448.662C455.703 441.796 455.609 426.527 454.922 414.69L453.699 386.519C453.465 378.828 454.084 370.302 451.936 362.871C450.455 357.745 448.27 356.289 443.765 353.794C441.237 355.071 437.27 357.219 435.867 359.802C433.764 363.671 433.856 369.616 433.546 373.956L431.887 410.184C431.614 416.784 431.69 423.661 430.555 430.17C429.875 434.076 428.701 438.11 426.703 441.557C424.164 445.936 419.81 449.052 414.933 450.239C410.036 451.432 403.755 450.563 399.525 447.787C394.251 444.325 390.741 436.914 389.653 430.833L384.911 400.808C383.681 390.549 383.695 379.073 380.771 369.172C379.178 363.778 376.757 358.745 371.433 356.123C369.319 355.083 366.896 355.139 364.712 355.896C361.936 356.859 359.415 358.914 358.11 361.572C356.548 364.751 355.911 368.574 355.25 372.029C353.644 380.42 352.934 388.834 351.869 397.294L348.661 420.194C347.697 426.708 346.99 433.636 343.924 439.559C341.403 444.43 337.523 448.28 332.196 449.921C326.765 451.595 322.068 451.671 316.926 448.893C310.752 445.557 307.157 438.122 305.604 431.579C304.577 427.254 304.508 422.702 304.321 418.281L303.705 404.545L302.773 383.064C302.592 376.343 302.955 368.94 300.98 362.472C299.455 357.478 297.254 356.184 292.835 353.804C290.186 355.14 286.066 357.643 284.771 360.406C282.804 364.605 282.933 370.709 282.644 375.293L281.048 409.875C280.756 416.803 280.798 423.915 279.57 430.75C278.945 434.226 277.896 437.701 276.28 440.853C274.314 444.69 270.12 448.485 265.994 449.743C261.089 451.24 254.666 451.089 250.063 448.633C239.826 443.17 238.664 429.65 236.961 419.512L233.459 395.399C232.548 386.845 232.434 377.29 229.896 369.059C228.683 365.124 227.317 361.202 224.044 358.45C221.743 356.516 219.364 355.059 216.235 355.365C205.01 356.462 204.376 371.94 202.99 380.45ZM237.839 277.451C250.79 275.287 262.217 274.493 274.058 281.135C277.546 283.942 281.066 287.036 283.495 290.846C285.537 294.049 287.254 297.014 288.679 300.556C289.945 303.704 290.854 306.818 291.245 310.194C292.078 317.364 291.169 324.709 290.64 331.872C290.388 335.285 290.62 339.164 289.234 342.327L289.107 342.609L289.42 342.794L289.937 342.483C291.003 341.908 293.894 341.802 295.013 342.283L295.472 342.5L295.956 342.253C295.066 340.08 295.624 337.299 295.356 334.956C294.896 330.952 294.127 326.948 293.838 322.928C293.223 314.384 294.066 305.133 297.382 297.191C300.879 288.818 309.36 281.416 317.673 278.018C331.02 272.563 344.742 276.865 358.012 280.285C361.341 281.143 365.068 282.601 368.516 282.621C372.371 282.644 376.862 280.613 380.564 279.508C392.958 275.806 408.392 273.535 420.559 278.901C429.363 282.784 435.88 291.375 439.343 300.138C440.567 303.237 441.641 306.362 442.041 309.689C442.958 317.329 442.031 325.098 441.395 332.727C441.138 335.817 441.405 339.051 440.132 341.938C439.91 342.442 439.946 342.128 440.182 342.815C441.674 341.988 444.159 341.712 445.812 342.253C446.526 342.487 445.93 342.435 446.683 342.426C446.045 329.407 442.812 316.786 446.111 303.756C448.934 292.604 455.203 285.318 465.128 279.56C477.284 272.508 491.017 275.874 503.702 279.126C508.69 279.954 513.404 281.925 518.407 282.637C521.746 283.112 526.09 281.179 529.27 280.18L536.31 278.327C544.958 276.081 555.386 274.633 564.175 276.617C574.181 278.876 581.19 284.281 586.576 293.007C589.595 297.898 592.05 303.925 592.862 309.626C593.881 316.775 592.942 324.458 592.235 331.593C591.874 335.235 592.021 339.046 591.12 342.603L591.002 343.031L596.349 342.727L596.346 250.155L142.485 250.003C143.318 259.118 142.716 268.798 142.717 277.973L143.034 321.202C143.06 328.368 142.008 336.068 143.2 343.141L143.998 343.467L144.326 343.216C144.943 342.742 144.774 341.428 144.803 340.651C145.355 325.408 140.163 307.82 148.302 293.736C151.078 288.931 155.13 285.454 159.548 282.194C174.602 271.087 190.143 276.226 206.564 280.14C210.127 280.99 213.621 282.425 217.332 282.577C221.071 282.73 225.323 280.832 228.921 279.76L237.839 277.451ZM479.156 286.345C471.443 287.153 465.636 289.715 460.711 295.85C452.452 306.138 453.09 317.215 454.515 329.696C454.816 332.33 455.022 334.983 455.714 337.549C457.798 345.28 461.431 352.513 462.643 360.501C463.918 368.904 463.649 377.723 463.919 386.213L465.585 414.249C466.008 419.814 466.046 425.875 467.756 431.212C468.785 434.426 470.912 437.871 473.645 439.914C475.024 440.945 476.924 441.988 478.702 441.673C481.182 441.234 483.156 439.114 484.419 437.077C489.547 428.809 489.575 418.577 490.694 409.167L493.037 394.139L495.427 375.339C496.301 368.976 497.538 361.97 500.583 356.247C503.351 351.044 508.894 346.416 514.709 345.119C519.646 344.019 525.063 345.17 529.255 347.967C536.457 352.773 539.997 360.906 542.02 368.987C543.116 374.456 543.347 379.967 544.095 385.476L547.877 410.308C548.632 415.968 548.775 422.001 550.355 427.504C551.604 431.851 553.735 437.432 557.574 440.129C558.805 440.994 561.099 441.941 562.626 441.7L563.355 441.511L563.722 441.41C565.482 440.876 567.397 439.17 568.236 437.545C569.056 435.957 569.259 434.049 569.576 432.31C570.412 427.726 571.041 422.971 571.377 418.321L574.295 382.367C574.808 375.226 574.643 367.698 575.923 360.661C576.69 356.442 578.455 352.387 579.71 348.294C582.297 339.857 583.965 331.646 584.802 322.853C585.401 316.568 584.757 311.57 582.639 305.621C580.277 298.982 575.497 291.899 568.91 288.889C560.983 285.267 550.895 286.25 542.707 288.55C539.487 289.454 536.347 290.719 533.095 291.497C529.158 292.44 524.859 292.809 520.814 292.97C515.871 293.167 510.475 292.683 505.647 291.605C499.644 290.265 494.008 288.02 487.885 286.955C484.989 286.451 482.088 286.399 479.156 286.345ZM328.477 286.327C320.788 287.088 314.944 289.619 309.968 295.698C302.164 305.229 302.173 315.874 303.437 327.57C303.796 330.886 304.044 334.363 304.929 337.584C307.018 345.193 310.594 352.447 311.797 360.304C313.154 369.168 312.886 378.575 313.151 387.537L314.83 415.357C315.24 420.35 315.251 425.801 316.716 430.62C317.671 433.765 319.599 437.284 322.181 439.387C323.577 440.524 325.59 441.905 327.487 441.701C329.748 441.459 331.59 439.905 332.905 438.134C339.138 429.739 338.789 416.803 340.191 406.867L343.169 387.815C344.808 374.738 344.787 357.366 356.436 348.625C358.638 346.972 361.52 345.43 364.278 345.021L365.602 344.881C371.458 344.312 376.234 346.055 380.774 349.752C386.347 354.291 389.899 362.201 391.263 369.114L393.832 389.445L396.712 407.822C397.606 414.467 397.866 421.518 399.711 427.987C400.848 431.972 403.034 437.42 406.502 439.928C408.055 441.051 410.264 442.059 412.217 441.607C414.187 441.152 416.361 439.429 417.345 437.688C418.343 435.921 418.553 433.636 418.88 431.654L420.392 420.38L423.402 382.99C423.879 375.756 423.864 368.32 425.069 361.158C425.775 356.966 427.42 352.877 428.71 348.838C429.514 346.318 429.985 343.728 430.726 341.192C431.488 338.589 432.484 335.914 432.82 333.217C433.857 324.899 435.227 316.663 432.774 308.484C430.493 300.877 425.988 292.949 418.681 289.173C410.992 285.2 400.851 286.24 392.751 288.297C388.946 289.263 385.278 290.803 381.437 291.632C376.466 292.703 371.2 293.104 366.127 292.948C353.105 292.546 341.568 286.253 328.477 286.327ZM177.778 286.35C170.214 286.958 164.437 289.48 159.515 295.311C152.381 303.765 151.254 313.035 152.213 323.765C152.612 328.224 152.897 333.002 154.048 337.339C156.136 345.205 159.745 352.648 161.001 360.752C162.159 368.224 161.966 376.203 162.229 383.757L163.962 415.058C164.354 420.082 164.379 425.474 165.849 430.333C166.953 433.983 168.772 437.048 171.67 439.556C172.835 440.565 174.787 441.856 176.392 441.761C178.774 441.62 180.586 439.971 182.003 438.207C187.345 431.558 187.527 421.527 188.529 413.426L192.13 389.281C193.89 375.851 193.695 357.383 205.701 348.543C207.976 346.867 210.695 345.441 213.516 345.026C219.036 344.214 224.26 345.372 228.743 348.793C234.791 353.409 239.052 361.501 240.432 368.889L242.809 388.31L245.094 402.19L247.242 418.763C247.657 421.689 247.921 424.881 248.735 427.716C249.834 431.543 252.245 437.415 255.555 439.87C256.999 440.941 259.387 442.009 261.227 441.662C263.138 441.301 265.054 439.888 266.111 438.29C267.651 435.962 267.843 432.677 268.289 429.968C269.704 421.37 270.313 412.531 270.886 403.833L272.57 382.09C273.053 374.547 273.147 366.785 274.545 359.339C275.348 355.059 277.338 350.822 278.537 346.618C279.641 342.748 280.996 338.642 281.7 334.694C282.419 330.665 282.63 326.482 283.137 322.418C284.244 313.531 281.544 303.394 275.961 296.346C271.41 290.6 266.374 287.494 259.004 286.693C253.25 286.067 246.629 287.026 241.07 288.574C237.774 289.491 234.544 290.727 231.216 291.512C226.872 292.538 222.066 293.014 217.611 292.991C213.206 292.969 208.686 292.604 204.384 291.618C199.454 290.488 194.704 288.645 189.743 287.61C185.733 286.774 181.863 286.447 177.778 286.35Z"/>
	<path fill="#18AAC3" d="M175.385 297.642C176.627 297.599 178.114 297.414 179.241 297.992C180.355 304.066 173.115 308.725 170.89 313.899C168.655 319.095 170.132 325.305 168.777 330.684C167.851 331.346 166.805 330.987 165.693 330.903C164.146 330.059 162.115 329.469 161.453 327.687C160.985 326.427 161.003 324.901 160.926 323.565C160.665 319.047 161.222 314.165 162.998 309.978C165.246 304.678 170.086 299.825 175.385 297.642Z"/>
	<path fill="#18AAC3" d="M326.22 297.594L326.996 297.558C328.115 297.578 329.367 297.432 330.161 298.235C330.272 299.443 330.313 300.408 329.863 301.553L329.665 302.03C327.84 306.61 323.484 309.473 321.676 314.018C319.529 319.416 321.084 325.433 319.585 330.862C318.618 331.272 317.536 330.964 316.528 330.82C315.154 330.309 313.127 329.657 312.458 328.243C311.906 327.077 311.872 325.623 311.755 324.354C311.317 319.595 312.044 314.415 313.874 309.992C316.075 304.675 320.951 299.858 326.22 297.594Z"/>
	<path fill="#18AAC3" d="M477.145 297.578C478.377 297.569 479.917 297.349 480.935 298.114C481.477 305.046 474.543 308.459 472.349 314.491C471.061 318.032 471.208 322.138 471.013 325.863C470.931 327.429 470.945 329.4 470.362 330.862C469.24 331.279 468.154 330.944 467.015 330.738C465.721 330.194 463.819 329.542 463.177 328.199C462.628 327.05 462.565 325.522 462.463 324.264C462.08 319.542 462.812 314.527 464.629 310.142C466.815 304.866 471.87 299.784 477.145 297.578Z"/>
</svg>
