<?xml version="1.0" encoding="utf-8" ?>
<svg xmlns="http://www.w3.org/2000/svg" xmlns:xlink="http://www.w3.org/1999/xlink" width="728" height="729">
	<path fill="#18A9C0" d="M0 349.658L-0 -0L349.333 0L377.958 0L728 0L728 346.816L728 381.832L728 729L383.278 729L345.069 729L-0 729L0 379.344L0 349.658ZM355.421 14.4218C270.488 15.9082 185.378 50.6949 124.224 109.797C121.334 112.59 118.213 115.09 115.417 118L109.7 124.407L93.7175 142.111C64.0001 178.466 41.6684 220.471 28.4965 265.544L22.5319 288.876C22.002 291.415 21.216 293.943 20.8997 296.513C20.2582 301.726 18.9394 306.961 18.1345 312.174C16.4131 323.325 15.2092 334.85 14.704 346.126C14.0757 360.147 14.114 374.372 15.1975 388.349L16.4856 404.901C21.799 447.111 33.8126 486.874 53.0997 524.816C58.1681 534.787 63.7099 544.375 69.7839 553.77C72.0425 557.263 74.16 560.927 76.6747 564.244L86.9318 578.279C96.3005 590.332 106.421 602.043 117.194 612.871L124.835 619.899L141.074 634.572C182.141 668.868 232.766 693.978 284.931 705.729C293.486 707.657 302.242 709.773 310.949 710.878L372.188 714.611C445.178 713.091 515.683 688.3 574.017 644.499C585.102 636.175 595.309 627.251 605.329 617.701C607.389 615.738 609.76 613.992 611.71 611.939L633.996 587.213C671.906 541.01 697.325 486.093 708.049 427.326C711.233 409.877 713.141 392.304 713.486 374.56C713.567 370.423 713.835 366.242 713.694 362.108L713.226 344.704C712.332 329.136 710.467 313.597 707.591 298.271C695.609 234.416 664.178 171.934 619.095 125C615.702 121.469 612.595 117.68 609.012 114.332C601.755 107.551 594.446 100.517 586.744 94.2502C533.788 51.1631 468.921 22.7428 400.733 16.0091C385.611 14.5158 370.601 14.2681 355.421 14.4218ZM0 379.344L-0 729L345.069 729C343.203 728.462 340.978 728.422 339.032 728.237L325.375 727.15L292.509 722.057C245.945 712.907 200.922 694.03 161.539 667.597L134.773 647.835C131.272 645.215 128.093 642.064 124.775 639.224C115.674 631.437 107.161 623.154 99.0042 614.382C81.2754 595.315 65.6101 575.038 52.0694 552.758C30.7083 517.609 15.9553 478.602 7.36509 438.436C5.34624 428.997 4.08811 419.434 2.81251 409.885L1.63991 401.42C0.993815 394.239 1.12084 386.878 0.0643854 379.755L0 379.344ZM377.958 0C384.53 0.886431 391.133 0.832046 397.722 1.41163C410.179 2.50735 422.945 4.29607 435.198 6.82658C465.196 13.0219 494.081 22.6543 521.785 35.7198C547.909 48.0402 572.623 64.4196 595.038 82.5626C602.053 88.2412 608.38 94.5204 614.973 100.637C616.292 101.86 617.768 102.898 619.078 104.159C625.879 110.706 632.354 117.905 638.543 125.027C640.857 127.689 643.373 130.258 645.515 133.052C656.185 146.968 666.585 160.768 675.748 175.759C692.437 203.065 705.514 233.302 714.119 264.12C716.672 273.263 719.27 282.507 721.001 291.851L726.13 324.989C726.968 332.1 726.51 339.843 728 346.816L728 0L377.958 0ZM0 349.658C0.534834 347.402 0.532763 344.712 0.703675 342.377L1.69889 326.721C2.2988 318.912 3.72759 310.828 5.00847 303.097C14.4064 246.381 37.9743 192.468 72.1755 146.356C110.679 94.4444 163.117 53.6514 222.516 28.2986C244.165 19.0587 267.257 12.1908 290.29 7.37325C304.014 4.50276 318.067 2.56308 332.021 1.25483C337.651 0.726954 343.364 0.910297 348.975 0.0574931L349.333 0L-0 -0L0 349.658ZM728 381.832L727.91 382.322C726.979 387.538 727.282 392.877 726.708 398.12C725.152 412.342 723.394 426.704 720.263 440.688C716.454 457.7 711.77 474.482 705.726 490.844C686.557 542.733 654.919 591.563 614.295 629.19C602.457 640.154 590.509 650.743 577.313 660.107C564.66 669.085 551.625 677.614 537.974 685.011C504.218 703.302 467.817 716.069 430.085 723.096L401.276 727.308L389.255 728.216C387.374 728.362 385.065 728.385 383.278 729L728 729L728 381.832Z"/>
	<path fill="#7E919D" d="M359.176 228.277L367.686 228.232L367.744 245.201C367.756 246.296 367.485 248.559 367.798 249.545C367.984 250.129 369.039 251.035 369.477 251.456C371.104 253.021 372.846 254.537 374.362 256.209C375.886 257.89 376.124 259.632 375.904 261.859C375.608 264.867 374.296 267.643 371.929 269.55C369.089 271.837 365.042 272.674 361.459 272.294C357.87 271.913 354.501 269.928 352.35 267.011C350.772 264.869 350.452 261.675 350.983 259.146L351.136 258.487C351.988 254.733 356.277 252.555 358.904 250.089L359.176 228.277Z"/>
	<path fill="#7E919D" d="M405.575 165.573L406.269 165.692C409.192 166.158 412.683 165.824 415.668 165.822L435.305 165.795L468.85 165.796C475.469 165.796 482.176 166.028 488.778 165.533L488.905 202.578L405.491 202.579L405.575 165.573Z"/>
	<path fill="#D0D6D9" d="M359.176 228.277L321.466 228.471C320.958 225.419 321.338 221.95 321.4 218.854L321.973 197.586L321.842 166.944C321.82 161.183 321.389 154.866 322.389 149.176C323.553 142.554 329.284 134.338 334.879 130.564L341.264 126.499C352.546 120.321 366.919 120.197 379.019 123.629C385.492 125.465 391.193 129.698 395.8 134.502C397.105 135.864 398.578 137.266 399.554 138.882C401.862 142.705 403.74 146.101 404.455 150.59C405.263 155.661 405.665 160.442 405.575 165.573L405.491 202.579L405.697 228.514L367.686 228.232L359.176 228.277Z"/>
	<path fill="#FEFEFE" d="M358.678 132.889C362.288 132.492 367.239 132.337 370.606 133.77C371.628 135.318 371.405 137.276 371.525 139.114L358.66 139.687C352.343 140.34 348.196 145.047 344.464 149.7L339.91 155.018C337.823 154.029 336.506 152.689 334.941 151.038C336.113 148.247 337.528 145.682 339.369 143.273C344.212 136.934 350.937 133.884 358.678 132.889Z"/>
	<path fill="#18A9C0" d="M495.003 303.306C496.136 304.618 496.869 306.259 497.65 307.797C500.786 313.973 502.121 320.734 502.915 327.551C503.602 333.45 503.389 339.291 503.179 345.207C502.799 355.905 501.329 367.131 498.165 377.375C493.689 391.868 486.252 405.637 479.637 419.235L473.146 432.503C471.549 435.788 469.754 439.323 468.816 442.869C466.7 450.871 466.812 459.884 466.064 468.122L462.682 503.548L461.842 527.398C461.399 538.219 458.412 546.581 450.243 553.998C444.137 559.542 437.575 561.439 429.474 560.954C421.824 560.496 410.379 555.689 406.041 549.064C403.308 544.89 402.624 539.669 401.808 534.858L399.299 519.867L396.353 503.81C395.338 499.134 394.048 494.521 393.353 489.78L392.183 479.594L388.293 455.87C387.472 450.165 387.195 444.349 385.822 438.739C384.954 435.191 383.949 431.865 381.43 429.121C377.641 424.993 369.537 421.515 363.966 421.354C361.447 421.282 358.299 422.251 356.168 423.574C344.211 431.001 342.909 449.949 340.1 462.461L335.012 483.225L331.735 502.912L329.023 516.84C327.353 525.946 326.595 535.727 323.643 544.517C322.34 548.398 320.098 552.367 317.021 555.115C314.539 557.332 311.742 558.645 308.373 558.383L293.033 556.9C289.579 556.562 285.98 556.552 282.667 555.405C278.996 554.135 273.422 551.666 271.706 548.006C269.963 544.291 264.455 513.187 265.488 510.777C266.37 508.72 266.596 506.634 266.118 504.404C264.214 495.519 263.412 486.324 262.242 477.32L258.972 454.242L257.822 442.203C257.536 438.028 257.586 432.949 255.858 429.098L255.612 428.572C253.461 423.74 250.187 419.37 247.5 414.815C243.662 408.308 240.244 401.257 237.444 394.247C234.315 386.417 231.252 378.224 229.184 370.038C227.496 363.358 226.959 356.875 226.475 350.045C225.549 336.983 225 324.836 230.388 312.457C238.546 293.714 254.553 279.854 273.46 272.529C279.689 270.116 286.993 268.663 293.692 268.784C300.79 268.912 307.193 270.538 314.064 272.02L346.241 278.876C350.911 279.775 355.984 280.861 360.724 281.177C370.389 281.82 380.364 278.466 389.745 276.45L407.125 273.494C412.045 272.722 417.099 271.779 422.075 271.548C430.353 270.251 439.186 271.336 447.358 272.673C451.322 273.322 455.409 274.721 459.196 276.051C473.581 281.102 485.563 289.08 494.197 301.816C494.427 302.156 494.979 302.91 495.003 303.306Z"/>
	<path fill="#12A2C6" d="M322.171 278.892C323.366 278.504 326.726 279.714 328.135 279.918C330.376 280.243 333.226 280.545 335.343 281.218C336.197 281.489 337.003 281.524 337.835 281.744L338.431 281.974L339.081 282.1L340.861 282.455L343.884 283.041L345.133 283.167C346.389 283.635 347.491 283.522 348.87 283.523C349.651 284.042 350.27 283.877 351.184 283.879C352.043 284.446 353.018 284.234 354.032 284.235C354.765 284.719 355.259 284.64 356.111 284.704L356.541 285.319L355.279 285.477C354.292 285.424 353.538 285.199 352.487 285.257L352.082 285.281L351.75 285.073C351.055 284.707 350.394 284.664 349.652 284.908C348.703 285.22 347.717 285.298 346.749 285.583L346.734 285.833C347.5 286.101 348.103 286.052 348.87 286.189C349.769 286.351 350.973 286.406 351.807 286.684C352.572 286.939 353.54 286.849 354.373 287.004C355.728 287.256 356.661 287.659 358.096 287.717L358.48 287.729L358.304 288.064C356.671 288.073 355.041 287.715 353.433 287.449C345.36 286.835 337.198 284.495 329.309 282.718C327.488 282.308 324.896 282.172 323.283 281.295C325.334 281.039 329.405 281.977 331.427 282.63C331.892 282.78 332.203 282.902 332.701 282.947C333.467 283.017 334.25 283.106 334.987 283.342C335.549 283.522 336.034 283.705 336.622 283.803L337.123 283.876L337.659 283.965C337.279 283.542 336.547 282.513 336.055 282.273C335.031 281.775 331.534 281.113 330.27 280.939L329.471 280.96C328.29 280.714 326.878 280.52 325.732 280.152C324.394 279.721 323.409 279.68 322.171 278.892Z"/>
	<path fill="#12A2C6" d="M422.075 271.548C430.353 270.251 439.186 271.336 447.358 272.673C451.322 273.322 455.409 274.721 459.196 276.051C473.581 281.102 485.563 289.08 494.197 301.816C494.427 302.156 494.979 302.91 495.003 303.306L494.29 303.428C492.973 301.128 490.798 298.133 488.927 296.241L488.42 295.711C487.968 294.927 488.602 295.568 487.838 294.894L487.363 294.489L486.64 293.786C485.092 292.483 483.78 290.796 482.173 289.61L481.784 289.337C480.105 287.891 477.283 285.396 475.281 284.529C474.019 283.982 473.526 283.239 472.378 282.624L471.776 282.325C471.006 281.865 470.709 281.573 469.793 281.384L469.018 282.487C469.495 282.794 469.859 283.021 470.207 283.483C470.579 283.978 470.839 283.912 471.431 284.071C472.152 284.773 472.362 285.198 472.633 286.165L471.943 286.699C471.161 287.558 470.644 288.112 469.678 288.805C469.067 288.792 468.763 288.796 468.227 288.475C467.189 287.854 464.435 286.767 463.227 286.783L462.578 285.855C461.795 285.686 461.958 285.713 461.51 285.145C460.692 284.966 460.779 284.867 460.274 284.256L459.482 284.293C458.999 283.745 458.55 283.442 457.906 283.09C457.346 282.784 456.924 282.59 456.427 282.177C456.328 282.095 455.976 281.777 455.843 281.728L454.739 281.45C454.283 280.245 454.439 280.096 454.788 278.905L456.716 278.895L457.133 278.524L457.839 278.917L458.678 277.82L458.41 276.952C457.075 276.619 455.966 275.746 454.644 275.407C454.177 275.287 453.787 274.995 453.355 274.888L450.981 274.262C449.161 273.766 446.426 273.659 444.835 272.941C444.319 272.709 444.602 272.744 444.02 272.707C442.925 272.637 441.801 272.512 440.718 272.321C437.37 271.729 433.513 271.769 430.094 271.763C428.825 271.761 427.411 272.02 426.173 271.86L422.075 271.548Z"/>
	<path fill="#FEFEFE" d="M295.706 282.751C301.898 282.114 307.35 283.454 313.355 284.754L334.987 289.852C343.761 291.924 352.765 293.756 361.775 294.388C369.662 294.941 377.489 294.535 385.289 293.252C398.504 291.08 411.242 286.926 424.534 284.936C429.278 284.226 434.588 283.286 439.368 283.639C441.997 283.833 444.663 284.686 447.202 285.381C453.744 287.173 459.643 289.328 465.488 292.831C476.418 299.381 485.614 311.006 488.571 323.523C490.126 330.103 489.84 337.17 489.398 343.868C488.864 351.984 488.086 360.375 485.926 368.238C483.327 377.701 478.638 386.522 474.588 395.413C469.352 406.912 464.243 418.968 460.405 431.002C456.65 442.775 455.575 455.967 454.001 468.212L448.191 508.081C447.012 516.561 446.45 525.309 444.695 533.68C444.19 536.089 443.612 538.318 442.254 540.418C439.971 543.947 436.055 545.692 432.081 546.583C427.958 547.507 425.139 546.385 421.684 544.091C419.654 542.742 418.568 541.109 417.755 538.865C414.473 529.808 413.635 519.309 412.055 509.813L408.252 488.754L401.999 454.134L399.125 440.069C397.039 430.379 393.97 420.798 385.144 415.2C377.048 410.065 365.762 406.993 356.319 409.303C348.456 411.227 341.712 415.782 337.336 422.591C335.298 425.762 333.614 429.342 332.449 432.926C329.095 443.233 327.493 454.409 325.538 465.053L316.823 515.157L314.047 530.376C313.202 534.334 312.32 538.092 310.185 541.597C308.936 543.647 307.598 544.985 305.193 545.487C300.615 546.443 292.743 545.498 288.803 542.745C286.711 541.283 285.813 535.789 285.184 533.43C282.192 522.213 280.984 510.661 279.581 499.164L273.084 446.864C272.206 440.877 271.701 434.516 270.253 428.643C268.443 421.303 264.352 415.882 260.893 409.305C252.211 392.798 244.534 375.639 241.69 357.109C238.835 338.505 238.8 320.827 250.446 305.111C260.874 291.039 279.054 285.207 295.706 282.751Z"/>
	<path fill="#18A9C0" d="M282.846 305.945C283.75 305.635 284.214 305.657 285.148 305.836C286.073 306.478 286.805 307.13 287.4 308.099C288.631 310.107 289.13 312.317 289.627 314.592C289.665 314.77 289.988 315.927 289.941 316.077C289.748 316.697 288.628 317.698 288.172 318.165L282.731 323.845C280.911 325.849 279.194 327.954 277.671 330.195C273.709 336.025 271.76 342.254 270.043 349.016C269.55 350.954 270.16 352.412 270.689 354.275C270.988 355.329 271.571 356.758 270.87 357.717C269.54 359.534 267.005 359.873 264.975 360.251C263.732 360.085 262.288 359.969 261.119 359.507C259.613 358.912 258.292 357.682 257.62 356.209C254.871 350.186 258.126 340.037 260.181 334.109C262.468 327.514 266.542 321.543 270.989 316.222C274.391 312.152 278.012 308.302 282.846 305.945Z"/>
</svg>
